<svg width="101" height="100" viewBox="0 0 101 100" fill="none" xmlns="http://www.w3.org/2000/svg">
<path d="M13 50H50.5V56.25H13V50Z" fill="#EFA923"/>
<path d="M6.75 34.375H38V40.625H6.75V34.375Z" fill="#EFA923"/>
<path d="M93.9968 51.8938L84.6218 30.0188C84.3812 29.4565 83.9808 28.9773 83.4703 28.6406C82.9597 28.304 82.3615 28.1247 81.75 28.125H72.375V21.875C72.375 21.0462 72.0457 20.2513 71.4597 19.6653C70.8736 19.0792 70.0788 18.75 69.25 18.75H19.2499V25H66.125V64.2375C64.701 65.0644 63.4548 66.1649 62.4583 67.4758C61.4617 68.7866 60.7346 70.2818 60.3187 71.875H40.6812C39.9206 68.9292 38.1117 66.3619 35.5937 64.6544C33.0756 62.9468 30.0212 62.2163 27.0031 62.5996C23.9849 62.983 21.2102 64.4539 19.1989 66.7368C17.1877 69.0196 16.0781 71.9576 16.0781 75C16.0781 78.0424 17.1877 80.9804 19.1989 83.2632C21.2102 85.5461 23.9849 87.017 27.0031 87.4004C30.0212 87.7837 33.0756 87.0532 35.5937 85.3456C38.1117 83.6381 39.9206 81.0708 40.6812 78.125H60.3187C60.9985 80.807 62.5532 83.1857 64.7368 84.8849C66.9203 86.5841 69.6082 87.5066 72.375 87.5066C75.1418 87.5066 77.8296 86.5841 80.0131 84.8849C82.1967 83.1857 83.7514 80.807 84.4312 78.125H91.125C91.9538 78.125 92.7486 77.7958 93.3347 77.2097C93.9207 76.6237 94.25 75.8288 94.25 75V53.125C94.2501 52.7016 94.164 52.2827 93.9968 51.8938ZM28.6249 81.25C27.3888 81.25 26.1804 80.8834 25.1526 80.1967C24.1248 79.5099 23.3237 78.5338 22.8507 77.3918C22.3777 76.2497 22.2539 74.9931 22.495 73.7807C22.7362 72.5683 23.3315 71.4547 24.2055 70.5806C25.0796 69.7065 26.1933 69.1112 27.4056 68.8701C28.618 68.6289 29.8747 68.7527 31.0167 69.2258C32.1588 69.6988 33.1349 70.4999 33.8216 71.5277C34.5084 72.5555 34.8749 73.7639 34.8749 75C34.8733 76.6571 34.2143 78.2458 33.0425 79.4176C31.8708 80.5893 30.282 81.2483 28.6249 81.25ZM72.375 34.375H79.6875L86.3875 50H72.375V34.375ZM72.375 81.25C71.1388 81.25 69.9304 80.8834 68.9026 80.1967C67.8748 79.5099 67.0738 78.5338 66.6007 77.3918C66.1277 76.2497 66.0039 74.9931 66.245 73.7807C66.4862 72.5683 67.0815 71.4547 67.9555 70.5806C68.8296 69.7065 69.9433 69.1112 71.1556 68.8701C72.368 68.6289 73.6247 68.7527 74.7667 69.2258C75.9088 69.6988 76.8849 70.4999 77.5716 71.5277C78.2584 72.5555 78.625 73.7639 78.625 75C78.6233 76.6571 77.9643 78.2458 76.7925 79.4176C75.6208 80.5893 74.0321 81.2483 72.375 81.25ZM88 71.875H84.4312C83.7428 69.1982 82.1857 66.8256 80.0038 65.1289C77.822 63.4323 75.1388 62.5077 72.375 62.5V56.25H88V71.875Z" fill="#EFA923"/>
</svg>
