<svg width="73" height="73" viewBox="0 0 73 73" fill="none" xmlns="http://www.w3.org/2000/svg">
<path fill-rule="evenodd" clip-rule="evenodd" d="M36.5 1.5C17.1697 1.5 1.5 17.1697 1.5 36.5C1.5 55.8303 17.1697 71.5 36.5 71.5C55.8303 71.5 71.5 55.8303 71.5 36.5C71.5 17.1697 55.8303 1.5 36.5 1.5ZM0.5 36.5C0.5 16.6175 16.6175 0.5 36.5 0.5C56.3825 0.5 72.5 16.6175 72.5 36.5C72.5 56.3825 56.3825 72.5 36.5 72.5C16.6175 72.5 0.5 56.3825 0.5 36.5ZM30.8763 27.9725C30.8763 22.83 34.4804 18.4488 39.6163 18.4488H46.0275V26.3775H39.6601C39.659 26.3781 39.6578 26.3788 39.6566 26.3796C39.6286 26.3966 39.5728 26.4392 39.5045 26.5321C39.3753 26.7076 39.2625 26.9903 39.2625 27.3425V30.25H46.2318L46.0148 31.4307L44.9911 37.0032L44.8405 37.8225H39.2625V54.5513H30.8763V37.8225H25.0825V30.25H30.8763V27.9725ZM39.6163 19.4488C35.1396 19.4488 31.8763 23.269 31.8763 27.9725V31.25H26.0825V36.8225H31.8763V53.5513H38.2625V36.8225H44.0075L45.0312 31.2501L38.2625 31.25V27.3425C38.2625 26.7819 38.4407 26.2906 38.6989 25.9395C38.9594 25.5854 39.2984 25.3775 39.6163 25.3775H45.0275V19.4488H39.6163Z" fill="#550312"/>
</svg>
