<svg width="101" height="100" viewBox="0 0 101 100" fill="none" xmlns="http://www.w3.org/2000/svg">
<path d="M94.1618 18.7501H76.3767L78.1189 11.7852L85.6032 9.23638C87.195 8.69537 88.1423 7.00396 87.6833 5.38677C87.5665 4.97996 87.3683 4.60111 87.1007 4.2732C86.8331 3.94529 86.5017 3.67516 86.1266 3.47919C85.7514 3.28322 85.3404 3.1655 84.9184 3.13316C84.4964 3.10082 84.0722 3.15454 83.6716 3.29107L74.4919 6.41607C73.9975 6.58464 73.5533 6.87444 73.1999 7.25896C72.8464 7.64348 72.5949 8.11047 72.4685 8.61724L69.9353 18.7501H44.3376C42.656 18.7501 41.2126 20.043 41.1286 21.7247C41.1083 22.1472 41.1739 22.5695 41.3216 22.9659C41.4692 23.3623 41.6958 23.7246 41.9876 24.0308C42.2795 24.3371 42.6304 24.5809 43.0193 24.7475C43.4081 24.9141 43.8267 25 44.2497 25.0001H44.7868L44.9821 26.6915C45.0281 27.0865 45.2177 27.4508 45.5148 27.7151C45.8119 27.9794 46.1958 28.1253 46.5935 28.1251C54.2107 28.1251 60.9802 30.254 66.1482 34.2813C69.0226 36.4961 71.3528 39.3387 72.9607 42.5919C73.8607 44.4217 74.5248 46.3584 74.9372 48.3555C75.0193 48.7447 75.2498 49.0866 75.5798 49.3086C78.2367 51.1114 80.1967 53.7692 81.134 56.8401C82.0713 59.9111 81.9295 63.2103 80.7321 66.1895C80.5929 66.5343 80.5825 66.9177 80.7028 67.2696C81.3948 69.2524 81.7486 71.3374 81.7497 73.4376C81.7497 77.8008 80.2653 81.959 77.57 85.1465C76.0419 86.9658 74.1196 88.4132 71.9489 89.379C71.5734 89.5444 71.278 89.851 71.1267 90.2325C70.3155 92.3456 69.17 94.3148 67.7341 96.0645C67.6743 96.1355 67.636 96.2221 67.6237 96.314C67.6113 96.406 67.6255 96.4996 67.6644 96.5839C67.7034 96.6681 67.7655 96.7395 67.8436 96.7897C67.9216 96.8399 68.0124 96.8668 68.1052 96.8672H77.7165C80.0697 96.8576 82.3341 95.9674 84.0638 94.3718C85.7934 92.7762 86.8631 90.5909 87.0622 88.2461L93.7419 25.0001H94.2497C94.6731 25.0005 95.0921 24.915 95.4814 24.7486C95.8707 24.5823 96.2221 24.3385 96.5143 24.0322C96.8066 23.7259 97.0335 23.3635 97.1814 22.9668C97.3293 22.5701 97.3951 22.1475 97.3747 21.7247C97.2927 20.043 95.8435 18.7501 94.1618 18.7501Z" fill="#EFA923"/>
<path d="M21.7285 62.5C22.3449 62.4971 22.9557 62.6164 23.5256 62.8511C24.0955 63.0858 24.6132 63.4311 25.0488 63.8672L28.0781 66.8965C28.1507 66.9691 28.2368 67.0267 28.3317 67.0661C28.4265 67.1054 28.5282 67.1256 28.6309 67.1256C28.7335 67.1256 28.8352 67.1054 28.93 67.0661C29.0249 67.0267 29.111 66.9691 29.1836 66.8965L32.207 63.8672C32.6426 63.4311 33.1604 63.0858 33.7303 62.8511C34.3002 62.6164 34.911 62.4971 35.5273 62.5H73.9219C74.1271 62.5021 74.3307 62.4637 74.521 62.3871C74.7114 62.3104 74.8848 62.1971 75.0313 62.0534C75.1779 61.9098 75.2947 61.7387 75.3751 61.5499C75.4555 61.3611 75.498 61.1583 75.5 60.9531V60.9375C75.4978 59.1372 74.875 57.3926 73.7365 55.998C72.598 54.6033 71.0135 53.6438 69.25 53.2812C69.0898 47.4824 66.7109 42.6289 62.3145 39.2188C58.248 36.0469 52.8145 34.375 46.5938 34.375H32.5312C19.207 34.375 10.1816 41.9473 9.875 53.2812C8.11155 53.6438 6.52703 54.6033 5.38853 55.998C4.25004 57.3926 3.6272 59.1372 3.625 60.9375C3.625 61.3519 3.78962 61.7493 4.08265 62.0424C4.37567 62.3354 4.7731 62.5 5.1875 62.5H21.7285Z" fill="#EFA923"/>
<path d="M36.8164 68.75C36.6112 68.7499 36.4079 68.7902 36.2182 68.8686C36.0285 68.947 35.8562 69.062 35.7109 69.2071L31.3867 73.5332C30.6542 74.2655 29.6608 74.6769 28.625 74.6769C27.5892 74.6769 26.5958 74.2655 25.8633 73.5332L21.5391 69.2071C21.3938 69.062 21.2215 68.947 21.0318 68.8686C20.8421 68.7902 20.6388 68.7499 20.4336 68.75H6.87891C6.14484 68.7468 5.43325 69.0032 4.86996 69.4739C4.30667 69.9446 3.92796 70.5993 3.80078 71.3223C3.68345 72.0213 3.62465 72.7288 3.625 73.4375C3.625 79.4121 7.75195 84.2793 12.8555 84.375C13.3301 87.3282 14.4785 89.9961 16.207 92.084C18.7637 95.1719 22.4805 96.875 26.6719 96.875H52.4531C56.6445 96.875 60.3613 95.1719 62.918 92.0801C64.6465 89.9922 65.7949 87.3243 66.2695 84.3711C71.373 84.2793 75.5 79.4121 75.5 73.4336C75.5004 72.7249 75.4416 72.0174 75.3242 71.3184C75.1962 70.5961 74.8172 69.9423 74.2539 69.4724C73.6907 69.0024 72.9796 68.7466 72.2461 68.75H36.8164Z" fill="#EFA923"/>
</svg>
