<svg width="73" height="73" viewBox="0 0 73 73" fill="none" xmlns="http://www.w3.org/2000/svg">
<path d="M35.9282 39.8366C35.2033 42.2839 33.1668 43.9344 30.7672 44.5908C28.1735 45.3004 25.2408 44.8224 23.2314 43.0002L23.2169 42.987L23.2015 42.9751C21.1307 41.3732 20.1244 38.7973 20.1951 36.2184C20.2659 33.6395 21.412 31.1204 23.5657 29.6309L23.5797 29.6211L23.5931 29.6105C26.5862 27.222 30.9214 27.7729 34.0301 29.9203L34.3584 30.1471L34.6524 29.8773C35.9394 28.6962 37.1333 27.4287 38.2891 26.1193L38.6366 25.7257L38.2265 25.3978C35.489 23.2095 32.0859 21.623 28.4292 21.7844C20.8579 21.5383 13.9159 28.1503 13.7816 35.7207C13.297 41.9194 17.3756 47.9672 23.1104 50.1535C28.809 52.3481 36.1525 50.88 39.8375 45.6976C42.2674 42.4267 42.7721 38.2534 42.5033 34.4L42.4711 33.9389L42.0089 33.9348C37.4815 33.8946 32.9548 33.9027 28.4384 33.9188L27.9427 33.9205L27.9402 34.4163C27.9322 36.0301 27.9401 37.6355 27.9482 39.246V39.2587L27.9506 39.7402L28.4319 39.756C30.0981 39.8105 31.7814 39.8164 33.4548 39.8221C34.2828 39.825 35.1084 39.8279 35.9282 39.8366ZM58.9256 38.9687L59.4196 38.9628V38.4688V34.4429V33.9458L58.9226 33.9429C58.4704 33.9402 58.0193 33.9384 57.5688 33.9366C56.834 33.9337 56.1007 33.9308 55.3667 33.924L55.3455 30.3658L55.3426 29.8688H54.8455H50.8116H50.3146L50.3116 30.3658C50.3076 31.0399 50.3016 31.7141 50.2956 32.3892V32.3893C50.291 32.8988 50.2864 33.4089 50.2828 33.9191C49.0963 33.9208 47.9099 33.9288 46.7235 33.9429L46.2295 33.9488V34.4429V38.4688V38.9628L46.7235 38.9687C47.3981 38.9767 48.0725 38.9828 48.7461 38.9888H48.75C49.2611 38.9934 49.7717 38.9979 50.2821 39.0034C50.2834 39.2869 50.2846 39.5705 50.2857 39.8542C50.2893 40.7537 50.2929 41.6543 50.3036 42.5568L50.3095 43.0509H50.8036H54.8455H55.3455V42.5509C55.3455 41.3666 55.3517 40.1823 55.3641 38.9979C56.5504 38.9908 57.7379 38.9829 58.9256 38.9687ZM1 36.5C1 16.8958 16.8958 1 36.5 1C56.1042 1 72 16.8958 72 36.5C72 56.1042 56.1042 72 36.5 72C16.8958 72 1 56.1042 1 36.5Z" stroke="#550312"/>
</svg>
