<svg width="73" height="73" viewBox="0 0 73 73" fill="none" xmlns="http://www.w3.org/2000/svg">
<path d="M44.8085 44.8085C47.0121 42.605 48.25 39.6163 48.25 36.5C48.25 36.0323 48.216 35.5734 48.1548 35.125H51V49.6137C51 49.9809 50.8543 50.3331 50.5949 50.593C50.3356 50.8529 49.9837 50.9993 49.6165 51H23.3862C22.6199 51 22 50.3801 22 49.6137V35.125H24.8452C24.784 35.5734 24.75 36.0323 24.75 36.5C24.75 39.6163 25.9879 42.605 28.1915 44.8085C30.395 47.0121 33.3837 48.25 36.5 48.25C39.6163 48.25 42.605 47.0121 44.8085 44.8085ZM39.1792 42.9663C38.3298 43.3184 37.4194 43.4998 36.4999 43.5C34.6429 43.5005 32.8617 42.7632 31.5483 41.4504C30.2349 40.1377 29.4967 38.3569 29.4962 36.4999C29.4958 34.6429 30.233 32.8617 31.5458 31.5483C32.8586 30.2349 34.6394 29.4967 36.4964 29.4962C37.4159 29.496 38.3264 29.6769 39.176 30.0286C40.0256 30.3802 40.7976 30.8958 41.448 31.5458C42.0983 32.1958 42.6143 32.9676 42.9663 33.817C43.3184 34.6664 43.4998 35.5769 43.5 36.4964C43.5002 37.4159 43.3193 38.3264 42.9677 39.176C42.616 40.0256 42.1005 40.7976 41.4504 41.448C40.8004 42.0983 40.0287 42.6143 39.1792 42.9663ZM49.9963 28.125H45.5C45.1585 28.125 44.8742 27.8434 44.8713 27.4985V23.0037C44.8713 22.837 44.9375 22.6771 45.0554 22.5592C45.1733 22.4412 45.3332 22.375 45.5 22.375H49.9962C50.163 22.375 50.3229 22.4412 50.4408 22.5592C50.5588 22.6771 50.625 22.837 50.625 23.0037V27.4983C50.625 27.4986 50.625 27.499 50.625 27.4993C50.6242 27.6653 50.5577 27.8243 50.4401 27.9416C50.3223 28.059 50.1626 28.125 49.9963 28.125ZM11.3977 11.3977C18.0552 4.74017 27.0848 1 36.5 1C41.1619 1 45.7782 1.91823 50.0853 3.70228C54.3923 5.48632 58.3058 8.10123 61.6023 11.3977C64.8988 14.6942 67.5137 18.6077 69.2977 22.9147C71.0818 27.2218 72 31.8381 72 36.5C72 41.1619 71.0818 45.7782 69.2977 50.0853C67.5137 54.3923 64.8988 58.3058 61.6023 61.6023C58.3058 64.8988 54.3923 67.5137 50.0853 69.2977C45.7782 71.0818 41.1619 72 36.5 72C27.0848 72 18.0552 68.2598 11.3977 61.6023C4.74017 54.9447 1 45.9152 1 36.5C1 27.0848 4.74017 18.0552 11.3977 11.3977ZM51.0837 55.75C53.6511 55.75 55.75 53.6511 55.75 51.0837V21.9162C55.75 19.3489 53.6511 17.25 51.0837 17.25H21.9162C19.3489 17.25 17.25 19.3489 17.25 21.9162V51.0837C17.25 53.6511 19.3489 55.75 21.9162 55.75H51.0837Z" stroke="#550312"/>
</svg>
