<svg width="73" height="72" viewBox="0 0 73 72" fill="none" xmlns="http://www.w3.org/2000/svg">
<path d="M27.6875 51.9212H28.1875V51.4212V27.9612V27.4612H27.6875H20.3975H19.8975V27.9612V51.4212V51.9212H20.3975H27.6875ZM28.4275 21.4325H28.4276L28.4274 21.4216C28.4024 20.2772 27.9876 19.2386 27.226 18.4845C26.4624 17.7286 25.3832 17.2912 24.0912 17.2912C22.8009 17.2912 21.7006 17.7274 20.92 18.4799C20.1393 19.2324 19.7062 20.2753 19.7062 21.4325C19.7062 23.7261 21.4189 25.5812 23.9975 25.5812C25.3344 25.5812 26.4473 25.133 27.2284 24.3714C28.0085 23.6108 28.4275 22.5665 28.4275 21.4325ZM54.3125 51.9212H54.8125V51.4212V37.55C54.8125 34.0133 53.8913 31.3496 52.2867 29.5648C50.6769 27.7742 48.4335 26.9287 45.92 26.9287C42.4862 26.9287 40.1854 28.5637 38.9125 30.0555L38.6924 27.9066L38.6464 27.4575H38.195H31.8612H31.3376L31.3618 27.9806C31.4591 30.0846 31.5525 32.5247 31.5525 35.4425V51.4175V51.9175H32.0525H39.3462H39.8462V51.4175V37.8913C39.8462 37.2218 39.8984 36.6351 40.0527 36.2582H40.0528L40.055 36.2524C40.5396 35.0255 41.5938 33.8387 43.3288 33.8387C44.4947 33.8387 45.2549 34.2809 45.748 35.0216C46.2633 35.7955 46.5225 36.9507 46.5225 38.42V51.4212V51.9212H47.0225H54.3125ZM1 36.5C1 16.8936 16.8936 1 36.5 1C56.1064 1 72 16.8936 72 36.5C72 56.1064 56.1064 72 36.5 72C16.8936 72 1 56.1064 1 36.5Z" stroke="#550312"/>
</svg>
