<svg width="235" height="47" viewBox="0 0 235 47" fill="none" xmlns="http://www.w3.org/2000/svg">
<path d="M2.034 29.683C1.812 29.609 1.63933 29.461 1.516 29.239L1.405 28.832C1.38033 28.7087 1.368 28.5853 1.368 28.462C1.368 28.3387 1.35567 28.2153 1.331 28.092C1.30633 27.9933 1.28167 27.8947 1.257 27.796C1.257 27.722 1.23233 27.648 1.183 27.574C1.13367 27.4753 1.08433 27.3767 1.035 27.278C0.985667 27.1793 0.936333 27.0807 0.887 26.982C0.615667 26.39 0.529333 25.8227 0.628 25.28V25.095C0.652667 24.799 0.677333 24.5153 0.702 24.244C0.726667 23.948 0.751333 23.652 0.776 23.356C0.776 23.2573 0.776 23.1587 0.776 23.06C0.800667 22.9613 0.813 22.8627 0.813 22.764C0.813 22.69 0.813 22.616 0.813 22.542C0.837667 22.468 0.85 22.4063 0.85 22.357C0.85 22.2337 0.85 22.098 0.85 21.95C0.874667 21.802 0.887 21.6663 0.887 21.543V21.321C0.862333 20.9263 0.85 20.544 0.85 20.174C0.85 19.7793 0.85 19.3847 0.85 18.99C0.85 18.8667 0.85 18.7433 0.85 18.62C0.85 18.472 0.837667 18.3363 0.813 18.213C0.788333 18.1637 0.776 18.0897 0.776 17.991C0.800667 17.8183 0.800667 17.658 0.776 17.51C0.776 17.362 0.776 17.214 0.776 17.066C0.776 16.9673 0.776 16.881 0.776 16.807C0.776 16.7083 0.788333 16.622 0.813 16.548C0.837667 16.3013 0.837667 16.067 0.813 15.845C0.788333 15.549 0.763667 15.253 0.739 14.957C0.714333 14.661 0.677333 14.3773 0.628 14.106C0.578667 13.6867 0.529333 13.2673 0.48 12.848C0.455333 12.4287 0.455333 12.0093 0.48 11.59V10.48C0.48 10.3567 0.48 10.2333 0.48 10.11C0.504667 9.98667 0.517 9.87567 0.517 9.777V9.481C0.492333 9.28367 0.48 9.08633 0.48 8.889C0.504667 8.667 0.529333 8.445 0.554 8.223V7.816C0.554 7.47067 0.554 7.12533 0.554 6.78C0.578667 6.43467 0.591 6.10167 0.591 5.781C0.591 5.58367 0.591 5.39867 0.591 5.226C0.591 5.02867 0.566333 4.84367 0.517 4.671C0.492333 4.375 0.517 4.05433 0.591 3.709C0.665 3.51167 0.751333 3.32667 0.85 3.154C0.948667 2.98133 1.05967 2.821 1.183 2.673C1.627 2.155 2.20667 1.896 2.922 1.896C3.144 1.92067 3.35367 1.97 3.551 2.044C3.773 2.09333 3.97033 2.192 4.143 2.34C4.19233 2.36467 4.26633 2.42633 4.365 2.525C4.48833 2.62367 4.624 2.72233 4.772 2.821C4.94467 2.895 5.11733 2.95667 5.29 3.006C5.48733 3.03067 5.68467 3.06767 5.882 3.117C6.104 3.16633 6.31367 3.21567 6.511 3.265C6.585 3.28967 6.68367 3.302 6.807 3.302C6.93033 3.302 7.029 3.265 7.103 3.191C7.15233 3.14167 7.20167 3.10467 7.251 3.08C7.325 3.03066 7.399 2.99366 7.473 2.969C7.769 2.79633 8.04033 2.784 8.287 2.932C8.361 2.95667 8.42267 2.99367 8.472 3.043C8.546 3.06767 8.60767 3.09233 8.657 3.117C8.92833 3.24033 9.138 3.38833 9.286 3.561C9.40933 3.709 9.56967 3.80767 9.767 3.857C9.89033 3.88167 9.989 3.91867 10.063 3.968C10.1617 4.01733 10.2603 4.09133 10.359 4.19C10.4577 4.264 10.5563 4.32567 10.655 4.375C10.7783 4.42433 10.8893 4.47367 10.988 4.523C11.1853 4.54767 11.3457 4.65867 11.469 4.856C11.5677 5.05333 11.728 5.189 11.95 5.263C12.0733 5.28767 12.1967 5.36167 12.32 5.485C12.3693 5.559 12.4927 5.64533 12.69 5.744C12.8133 5.76867 12.912 5.83033 12.986 5.929C13.0847 6.003 13.171 6.10167 13.245 6.225L13.319 6.336C13.4917 6.706 13.7753 7.05133 14.17 7.372C14.318 7.49533 14.4537 7.64333 14.577 7.816C14.7003 7.964 14.7867 8.13667 14.836 8.334C14.8853 8.43267 14.9347 8.53133 14.984 8.63C15.058 8.72867 15.1197 8.83967 15.169 8.963C15.2183 9.037 15.2553 9.111 15.28 9.185C15.3047 9.259 15.3293 9.34533 15.354 9.444C15.3787 9.54267 15.4033 9.629 15.428 9.703C15.4527 9.777 15.4773 9.86333 15.502 9.962C15.5267 10.0113 15.539 10.073 15.539 10.147C15.539 10.1963 15.5513 10.2457 15.576 10.295C15.65 10.5663 15.6993 10.85 15.724 11.146C15.7733 11.442 15.8103 11.738 15.835 12.034C15.8597 12.2067 15.8597 12.3793 15.835 12.552C15.835 12.7247 15.835 12.9097 15.835 13.107C15.835 13.2303 15.8227 13.366 15.798 13.514C15.798 13.6373 15.7857 13.7607 15.761 13.884C15.761 13.958 15.7363 14.0443 15.687 14.143C15.465 14.809 15.1073 15.401 14.614 15.919C14.5153 16.0177 14.4167 16.1287 14.318 16.252C14.2193 16.3507 14.1207 16.4493 14.022 16.548C13.874 16.696 13.726 16.8317 13.578 16.955C13.43 17.0783 13.282 17.2017 13.134 17.325L13.023 17.436C12.8257 17.5347 12.6283 17.6333 12.431 17.732C12.2337 17.8307 12.024 17.9047 11.802 17.954C11.728 17.954 11.6787 17.9663 11.654 17.991C11.4813 18.0897 11.284 18.139 11.062 18.139C10.8647 18.139 10.6673 18.1267 10.47 18.102C10.3713 18.0773 10.2727 18.065 10.174 18.065C10.1 18.0403 10.0137 18.028 9.915 18.028C9.59433 18.028 9.286 18.0403 8.99 18.065C8.694 18.0897 8.38567 18.1267 8.065 18.176L6.363 18.435C6.289 18.435 6.20267 18.4473 6.104 18.472C6.03 18.472 5.94367 18.4843 5.845 18.509C5.67233 18.5337 5.49967 18.5707 5.327 18.62C5.179 18.6447 5.01867 18.6447 4.846 18.62C4.772 18.62 4.735 18.6693 4.735 18.768V19.397C4.68567 19.6683 4.68567 19.9397 4.735 20.211C4.78433 20.433 4.75967 20.6057 4.661 20.729C4.587 20.9017 4.57467 21.0867 4.624 21.284C4.67333 21.506 4.71033 21.7403 4.735 21.987C4.78433 22.209 4.83367 22.431 4.883 22.653C4.90767 22.7763 4.92 22.8997 4.92 23.023C4.94467 23.1463 4.957 23.2697 4.957 23.393C5.00633 23.911 5.08033 24.429 5.179 24.947C5.22833 25.095 5.253 25.243 5.253 25.391C5.27767 25.5143 5.30233 25.65 5.327 25.798C5.327 25.9707 5.31467 26.1063 5.29 26.205C5.26533 26.279 5.24067 26.3653 5.216 26.464C5.216 26.538 5.19133 26.612 5.142 26.686L5.031 26.945C4.98167 26.9943 4.93233 27.0683 4.883 27.167C4.78433 27.3643 4.61167 27.5247 4.365 27.648C4.069 27.7713 3.79767 27.8207 3.551 27.796C3.42767 27.796 3.34133 27.8083 3.292 27.833C3.16867 27.833 3.09467 27.8823 3.07 27.981C3.04533 28.0303 3.02067 28.092 2.996 28.166C2.97133 28.24 2.94667 28.3017 2.922 28.351C2.922 28.4497 2.90967 28.5483 2.885 28.647C2.885 28.7703 2.87267 28.8937 2.848 29.017C2.82333 29.2143 2.72467 29.3993 2.552 29.572C2.404 29.72 2.23133 29.757 2.034 29.683ZM5.401 15.216C5.549 15.216 5.68467 15.216 5.808 15.216C5.956 15.1913 6.104 15.1667 6.252 15.142C6.42467 15.0927 6.59733 15.0557 6.77 15.031C6.94267 15.0063 7.11533 14.9817 7.288 14.957C7.63333 14.9077 7.96633 14.8337 8.287 14.735C8.38567 14.7103 8.48433 14.698 8.583 14.698C8.68167 14.6733 8.78033 14.661 8.879 14.661C9.05167 14.661 9.175 14.6487 9.249 14.624C9.42167 14.5747 9.582 14.55 9.73 14.55C9.90267 14.55 10.0877 14.55 10.285 14.55H10.84C11.136 14.5253 11.3703 14.402 11.543 14.18L11.839 13.847C11.9377 13.7237 12.024 13.6003 12.098 13.477C12.1967 13.329 12.2583 13.1687 12.283 12.996C12.3323 12.626 12.32 12.293 12.246 11.997C12.172 11.701 12.0857 11.4173 11.987 11.146C11.8883 10.85 11.765 10.5787 11.617 10.332C11.469 10.0113 11.247 9.76467 10.951 9.592C10.8523 9.56733 10.7783 9.49333 10.729 9.37C10.6797 9.222 10.5933 9.111 10.47 9.037C10.4453 9.01233 10.4207 8.98767 10.396 8.963C10.3713 8.93833 10.3343 8.91367 10.285 8.889C10.1863 8.79033 10.0507 8.741 9.878 8.741C9.77933 8.741 9.66833 8.72867 9.545 8.704C9.44633 8.65467 9.34767 8.61766 9.249 8.593C9.15033 8.54367 9.05167 8.49433 8.953 8.445C8.879 8.39567 8.805 8.34633 8.731 8.297C8.48433 8.149 8.213 8.075 7.917 8.075C7.695 8.075 7.44833 8.038 7.177 7.964C6.90567 7.79133 6.622 7.69267 6.326 7.668C6.27667 7.668 6.20267 7.64333 6.104 7.594L5.808 7.483C5.66 7.409 5.53667 7.372 5.438 7.372C5.11733 7.27333 4.883 7.38433 4.735 7.705C4.71033 7.779 4.68567 7.86533 4.661 7.964C4.63633 8.038 4.61167 8.12433 4.587 8.223C4.56233 8.42033 4.53767 8.61767 4.513 8.815C4.48833 9.01233 4.46367 9.20967 4.439 9.407C4.41433 9.555 4.38967 9.703 4.365 9.851C4.34033 9.999 4.328 10.147 4.328 10.295C4.30333 10.6157 4.291 10.9363 4.291 11.257C4.31567 11.5777 4.35267 11.9107 4.402 12.256V12.626C4.402 12.7987 4.402 12.9713 4.402 13.144C4.42667 13.3167 4.45133 13.4893 4.476 13.662C4.50067 13.736 4.513 13.8347 4.513 13.958L4.624 14.957C4.624 15.105 4.698 15.179 4.846 15.179C4.94467 15.2037 5.031 15.216 5.105 15.216C5.20367 15.216 5.30233 15.216 5.401 15.216ZM24.5635 27.87C24.5389 27.87 24.5019 27.8577 24.4525 27.833C24.4279 27.833 24.3909 27.833 24.3415 27.833C24.1689 27.833 24.0455 27.759 23.9715 27.611C23.8729 27.4383 23.7742 27.2903 23.6755 27.167C23.5769 27.0437 23.4659 26.9203 23.3425 26.797C23.2192 26.6737 23.1082 26.538 23.0095 26.39C22.9355 26.242 22.8615 26.094 22.7875 25.946C22.7135 25.8227 22.6765 25.6993 22.6765 25.576V25.206C22.6765 25.0827 22.6642 24.9593 22.6395 24.836C22.6395 24.688 22.6272 24.5523 22.6025 24.429C22.5532 24.2317 22.5039 24.022 22.4545 23.8C22.4299 23.578 22.3929 23.3683 22.3435 23.171C22.3435 23.1217 22.3312 23.0723 22.3065 23.023C22.3065 22.949 22.3065 22.8873 22.3065 22.838C22.2819 22.5667 22.2449 22.2953 22.1955 22.024C22.1462 21.728 22.0969 21.4443 22.0475 21.173C21.9735 20.6797 21.8872 20.1987 21.7885 19.73C21.7145 19.2367 21.6405 18.7557 21.5665 18.287L21.3445 17.066C21.3199 16.8687 21.2459 16.659 21.1225 16.437C20.9745 16.1657 20.8635 15.8697 20.7895 15.549C20.7649 15.401 20.7279 15.2653 20.6785 15.142C20.6292 14.994 20.5799 14.846 20.5305 14.698C20.4565 14.4513 20.3825 14.2047 20.3085 13.958C20.2345 13.7113 20.1729 13.4647 20.1235 13.218C20.0989 13.0207 20.0619 12.8233 20.0125 12.626C19.9632 12.4287 19.9139 12.2313 19.8645 12.034L19.6425 11.035C19.6425 10.9857 19.6302 10.9487 19.6055 10.924C19.5809 10.5787 19.5315 10.2333 19.4575 9.888C19.3835 9.518 19.3095 9.16033 19.2355 8.815C19.2109 8.61767 19.1739 8.38333 19.1245 8.112C19.0999 7.816 19.0999 7.58167 19.1245 7.409V7.039C19.1739 6.69367 19.2849 6.373 19.4575 6.077C19.6549 5.73166 19.9755 5.46033 20.4195 5.263C20.5429 5.21367 20.6662 5.17667 20.7895 5.152C20.9129 5.12733 21.0239 5.10267 21.1225 5.078C21.3939 5.05333 21.6529 5.09033 21.8995 5.189C22.1462 5.263 22.3929 5.374 22.6395 5.522C22.7135 5.57133 22.7752 5.633 22.8245 5.707C22.8985 5.83033 22.9725 5.95366 23.0465 6.077C23.1452 6.20033 23.2069 6.336 23.2315 6.484C23.2809 6.632 23.3302 6.78 23.3795 6.928C23.4535 7.076 23.5275 7.21167 23.6015 7.335C23.7249 7.58167 23.8112 7.84067 23.8605 8.112C23.9099 8.38333 23.9592 8.65467 24.0085 8.926C24.0825 9.296 24.1195 9.69067 24.1195 10.11V10.295C24.1689 10.5417 24.1935 10.7883 24.1935 11.035C24.1935 11.257 24.1935 11.4913 24.1935 11.738C24.2182 12.1327 24.2552 12.5273 24.3045 12.922C24.3539 13.292 24.4032 13.6867 24.4525 14.106L24.6745 15.845V15.919C24.7239 16.1903 24.7732 16.474 24.8225 16.77C24.8965 17.0413 24.9459 17.3127 24.9705 17.584C25.0445 18.0033 25.1185 18.435 25.1925 18.879C25.2912 19.2983 25.3652 19.7177 25.4145 20.137L25.6365 21.691C25.6859 21.9377 25.7229 22.1843 25.7475 22.431C25.7969 22.6777 25.8462 22.9243 25.8955 23.171C25.9449 23.4177 25.9819 23.6643 26.0065 23.911C26.0559 24.133 26.1052 24.3673 26.1545 24.614C26.1792 24.7127 26.1915 24.8113 26.1915 24.91C26.2162 24.984 26.2285 25.0703 26.2285 25.169C26.2532 25.539 26.1915 25.8967 26.0435 26.242C26.0189 26.3407 25.9572 26.4393 25.8585 26.538C25.7599 26.686 25.6735 26.7847 25.5995 26.834C25.4022 27.0313 25.2542 27.241 25.1555 27.463C25.1555 27.4877 25.1309 27.5247 25.0815 27.574C25.0569 27.6233 25.0199 27.6727 24.9705 27.722C24.8719 27.8207 24.7362 27.87 24.5635 27.87ZM37.3982 32.125C37.1022 32.2483 36.8679 32.2237 36.6952 32.051C36.4239 31.8537 36.2882 31.5947 36.2882 31.274V30.682C36.2635 30.46 36.2389 30.2257 36.2142 29.979C36.2142 29.757 36.2019 29.535 36.1772 29.313C36.1772 29.091 36.1402 28.8937 36.0662 28.721C36.0662 28.6223 36.0045 28.5113 35.8812 28.388C35.8319 28.3387 35.7702 28.277 35.6962 28.203C35.6222 28.129 35.5482 28.0673 35.4742 28.018C35.4495 27.9687 35.4125 27.9317 35.3632 27.907C35.3139 27.8823 35.2645 27.8577 35.2152 27.833C35.1412 27.759 35.0672 27.6727 34.9932 27.574C34.9439 27.4753 34.9069 27.3767 34.8822 27.278C34.8329 27.1793 34.7835 27.1053 34.7342 27.056L34.5122 26.908L34.4012 26.797C34.3765 26.723 34.3395 26.6613 34.2902 26.612C34.2409 26.538 34.1915 26.464 34.1422 26.39C34.0929 26.2913 34.0682 26.205 34.0682 26.131C34.0189 25.909 33.9325 25.7363 33.8092 25.613C33.7845 25.539 33.7845 25.4773 33.8092 25.428C33.8585 25.3047 33.9079 25.1443 33.9572 24.947C33.9819 24.7497 34.0559 24.5523 34.1792 24.355C34.2532 24.2317 34.3149 24.1207 34.3642 24.022C34.4135 23.8987 34.4505 23.7877 34.4752 23.689C34.5985 23.467 34.6725 23.245 34.6972 23.023C34.6972 22.9737 34.6972 22.9367 34.6972 22.912C34.7219 22.8873 34.7342 22.8627 34.7342 22.838C34.7835 22.7393 34.8205 22.653 34.8452 22.579C34.8699 22.4803 34.8822 22.3817 34.8822 22.283C34.8822 22.2337 34.9069 22.1843 34.9562 22.135C34.9809 22.061 34.9809 21.9993 34.9562 21.95C34.9315 21.9007 34.9439 21.8513 34.9932 21.802C35.0425 21.7527 35.0795 21.7033 35.1042 21.654C35.1289 21.58 35.1412 21.4937 35.1412 21.395C35.1412 21.395 35.1782 21.358 35.2522 21.284C35.3755 21.1607 35.4495 21.0373 35.4742 20.914C35.5235 20.7907 35.5605 20.6797 35.5852 20.581C35.6345 20.4577 35.6592 20.3343 35.6592 20.211C35.6592 20.0137 35.7209 19.8903 35.8442 19.841C35.8935 19.841 35.9182 19.804 35.9182 19.73C35.9675 19.656 36.0045 19.582 36.0292 19.508C36.0539 19.434 36.0785 19.36 36.1032 19.286C36.1279 19.212 36.1402 19.1133 36.1402 18.99C36.0909 18.8667 36.1279 18.7803 36.2512 18.731C36.3499 18.7063 36.3992 18.6323 36.3992 18.509V18.398C36.3992 18.2253 36.4485 18.0897 36.5472 17.991C36.5965 17.917 36.6459 17.843 36.6952 17.769C36.7445 17.695 36.7815 17.621 36.8062 17.547C36.9049 17.4483 36.9295 17.3497 36.8802 17.251C36.8309 17.103 36.8802 16.992 37.0282 16.918C37.0529 16.8933 37.0652 16.8687 37.0652 16.844C37.1145 16.7947 37.1392 16.733 37.1392 16.659C37.1392 16.585 37.1639 16.5233 37.2132 16.474C37.2625 16.4247 37.2872 16.3753 37.2872 16.326C37.2872 16.252 37.2995 16.1903 37.3242 16.141V16.104H37.2502C37.1515 16.1533 37.0529 16.215 36.9542 16.289C36.8802 16.3383 36.8062 16.3877 36.7322 16.437C36.6335 16.4863 36.5472 16.5357 36.4732 16.585C36.3992 16.6343 36.3005 16.6713 36.1772 16.696C36.0785 16.7207 35.9799 16.77 35.8812 16.844C35.8072 16.918 35.7209 16.9797 35.6222 17.029C35.4249 17.177 35.3139 17.362 35.2892 17.584C35.2892 17.6827 35.2769 17.806 35.2522 17.954C35.2275 18.0773 35.2152 18.2007 35.2152 18.324C35.2152 18.4473 35.1905 18.583 35.1412 18.731C35.0919 18.8543 35.0425 18.9777 34.9932 19.101C34.9192 19.2737 34.7959 19.397 34.6232 19.471C34.4505 19.5697 34.2655 19.582 34.0682 19.508C33.8709 19.4093 33.7475 19.2737 33.6982 19.101C33.6735 19.0023 33.6489 18.916 33.6242 18.842C33.6242 18.7433 33.6242 18.6447 33.6242 18.546C33.6489 18.324 33.6489 18.1143 33.6242 17.917C33.6242 17.695 33.6242 17.4853 33.6242 17.288C33.6242 16.9673 33.5255 16.6467 33.3282 16.326C33.1555 16.1287 33.0569 15.919 33.0322 15.697C33.0322 15.6477 32.9952 15.586 32.9212 15.512C32.8472 15.438 32.7362 15.3517 32.5882 15.253C32.4895 15.179 32.4155 15.0803 32.3662 14.957C32.2922 14.735 32.2182 14.513 32.1442 14.291C32.0949 14.069 32.0825 13.8347 32.1072 13.588C32.1072 13.3167 32.1935 13.0577 32.3662 12.811C32.7362 12.2683 33.2542 11.96 33.9202 11.886H34.1052C34.4259 11.9107 34.7342 11.8983 35.0302 11.849C35.3262 11.775 35.6222 11.7133 35.9182 11.664L36.6582 11.479C37.0529 11.3803 37.4352 11.294 37.8052 11.22C38.1752 11.1213 38.5575 11.0227 38.9522 10.924C39.2235 10.8747 39.4085 10.7267 39.5072 10.48L40.0622 9.148C40.2842 8.65467 40.5432 8.17367 40.8392 7.705L41.6162 6.299C41.6902 6.17567 41.7642 6.05233 41.8382 5.929C41.9369 5.781 42.0232 5.633 42.0972 5.485C42.2452 5.21367 42.3809 4.94233 42.5042 4.671C42.5782 4.54767 42.5289 4.46133 42.3562 4.412H41.9862C41.7889 4.43667 41.5792 4.46133 41.3572 4.486C41.1599 4.51066 40.9625 4.53533 40.7652 4.56L40.0992 4.671C39.8032 4.69566 39.4949 4.73267 39.1742 4.782C38.8782 4.83133 38.5822 4.88067 38.2862 4.93L37.7682 5.041C37.7189 5.041 37.6449 5.09033 37.5462 5.189C37.5215 5.28767 37.4352 5.337 37.2872 5.337H37.2502C37.1022 5.28767 36.9542 5.28767 36.8062 5.337C36.6582 5.36166 36.5102 5.36166 36.3622 5.337C36.3622 5.337 36.3499 5.337 36.3252 5.337C36.3252 5.337 36.3252 5.34933 36.3252 5.374C36.1772 5.42333 36.0292 5.47267 35.8812 5.522C35.7332 5.54666 35.5852 5.58367 35.4372 5.633C35.1905 5.707 34.9932 5.818 34.8452 5.966C34.7465 6.06467 34.6479 6.151 34.5492 6.225C34.4505 6.27433 34.3395 6.32367 34.2162 6.373C34.1175 6.39766 34.0065 6.43467 33.8832 6.484C33.7845 6.53333 33.6735 6.58267 33.5502 6.632C33.3529 6.73067 33.1432 6.817 32.9212 6.891C32.6992 6.965 32.4772 7.05133 32.2552 7.15L32.0702 7.261C31.8729 7.35966 31.7495 7.53233 31.7002 7.779L31.5892 8.149C31.5892 8.24767 31.5275 8.38333 31.4042 8.556C31.3795 8.556 31.3425 8.58067 31.2932 8.63C31.1205 8.852 30.8985 8.889 30.6272 8.741C30.4545 8.64233 30.3312 8.50667 30.2572 8.334L30.1462 8.001C30.1215 7.90233 30.0845 7.779 30.0352 7.631C30.0105 7.45833 29.9119 7.31033 29.7392 7.187L29.6282 7.113C29.0609 6.69367 28.7155 6.10167 28.5922 5.337C28.4935 4.86833 28.6045 4.38733 28.9252 3.894C29.0239 3.79533 29.0855 3.72133 29.1102 3.672C29.2582 3.45 29.4555 3.302 29.7022 3.228C29.8255 3.17867 29.9365 3.14166 30.0352 3.117C30.1585 3.06767 30.2695 3.03067 30.3682 3.006C30.4422 2.98133 30.5779 2.969 30.7752 2.969C30.8739 2.94433 30.9602 2.932 31.0342 2.932C31.1329 2.932 31.2315 2.91967 31.3302 2.895C31.6755 2.87033 32.0209 2.821 32.3662 2.747C32.7362 2.64833 33.0939 2.57433 33.4392 2.525L34.5492 2.303C34.7465 2.25367 34.9192 2.21667 35.0672 2.192C35.2399 2.14267 35.4125 2.10567 35.5852 2.081C35.8812 2.03167 36.1649 1.97 36.4362 1.896C36.7322 1.822 37.0282 1.76033 37.3242 1.711C37.4969 1.66166 37.6572 1.637 37.8052 1.637C37.9779 1.61233 38.1382 1.58767 38.2862 1.563L39.9142 1.341C40.1115 1.31633 40.2965 1.304 40.4692 1.304C40.6665 1.27933 40.8515 1.267 41.0242 1.267C41.1722 1.267 41.3079 1.267 41.4312 1.267C41.5792 1.267 41.7272 1.25466 41.8752 1.23C41.8999 1.23 41.9122 1.23 41.9122 1.23C41.9369 1.20533 41.9615 1.193 41.9862 1.193C42.2822 1.16833 42.5782 1.156 42.8742 1.156C43.1702 1.13133 43.4662 1.10666 43.7622 1.082C44.0582 1.05733 44.3295 1.09433 44.5762 1.193C44.8475 1.29167 45.1065 1.415 45.3532 1.563C45.4025 1.61233 45.4519 1.64933 45.5012 1.674C45.7725 1.94533 45.9822 2.25367 46.1302 2.599C46.2782 2.91967 46.3275 3.28967 46.2782 3.709C46.2289 4.10367 46.1549 4.46133 46.0562 4.782C46.0069 4.95467 45.9575 5.12733 45.9082 5.3C45.8589 5.47267 45.7849 5.633 45.6862 5.781C45.6369 5.90433 45.5875 6.04 45.5382 6.188C45.4642 6.41 45.3779 6.632 45.2792 6.854C45.2052 7.05133 45.1189 7.261 45.0202 7.483L44.5762 8.408C44.5515 8.50667 44.5022 8.60533 44.4282 8.704C44.3789 8.80267 44.3295 8.91367 44.2802 9.037C44.2555 9.06167 44.2432 9.09867 44.2432 9.148C44.2432 9.19733 44.2309 9.24667 44.2062 9.296C44.2062 9.39467 44.2309 9.444 44.2802 9.444C44.3295 9.46867 44.3665 9.481 44.3912 9.481C44.4405 9.481 44.4775 9.49333 44.5022 9.518C44.5515 9.518 44.5885 9.53033 44.6132 9.555C44.6625 9.555 44.6995 9.555 44.7242 9.555C45.0695 9.60433 45.3532 9.72767 45.5752 9.925C45.7972 10.0977 45.9945 10.3197 46.1672 10.591C46.3152 10.8623 46.4262 11.1337 46.5002 11.405C46.6235 11.7997 46.5865 12.1697 46.3892 12.515C46.1179 13.0083 45.7602 13.3783 45.3162 13.625C44.8969 13.847 44.4529 13.921 43.9842 13.847C43.7869 13.7977 43.5895 13.7977 43.3922 13.847C43.1949 13.8717 42.9975 13.9087 42.8002 13.958C42.6769 13.958 42.5289 14.0197 42.3562 14.143C42.2575 14.1923 42.1589 14.2417 42.0602 14.291C41.9862 14.3403 41.8999 14.3897 41.8012 14.439L41.5792 14.55C41.5299 14.5993 41.4805 14.661 41.4312 14.735C41.3819 14.7843 41.3325 14.846 41.2832 14.92C41.2832 14.9693 41.2709 15.0063 41.2462 15.031C41.2215 15.2283 41.1599 15.4257 41.0612 15.623C40.9872 15.7957 40.9132 15.9807 40.8392 16.178L40.6172 16.844C40.5925 16.8933 40.5679 16.9427 40.5432 16.992C40.5432 17.0413 40.5309 17.0907 40.5062 17.14C40.4075 17.4607 40.2842 17.7813 40.1362 18.102C40.0129 18.4227 39.8895 18.7433 39.7662 19.064C39.6922 19.2367 39.6182 19.4217 39.5442 19.619C39.4702 19.8163 39.3715 20.0137 39.2482 20.211C39.2482 20.211 39.2359 20.2233 39.2112 20.248C39.2112 20.248 39.2112 20.2603 39.2112 20.285C39.1619 20.507 39.0879 20.7167 38.9892 20.914C38.8905 21.1113 38.8165 21.321 38.7672 21.543C38.7425 21.6417 38.7179 21.7403 38.6932 21.839C38.6685 21.913 38.6315 21.987 38.5822 22.061C38.5575 22.0857 38.5452 22.1227 38.5452 22.172C38.5452 22.1967 38.5329 22.2337 38.5082 22.283C38.4342 22.579 38.5329 22.69 38.8042 22.616C39.1249 22.542 39.4332 22.4803 39.7292 22.431C40.0499 22.357 40.3582 22.2707 40.6542 22.172C41.0489 22.0733 41.4312 21.987 41.8012 21.913C42.1712 21.8143 42.5412 21.728 42.9112 21.654C43.1085 21.6047 43.3059 21.5553 43.5032 21.506C43.7252 21.432 43.9225 21.3827 44.0952 21.358C44.4652 21.2347 44.7612 21.062 44.9832 20.84C45.1065 20.6673 45.2915 20.544 45.5382 20.47C45.7355 20.3467 45.9329 20.322 46.1302 20.396C46.2535 20.4207 46.3522 20.433 46.4262 20.433C46.5249 20.4083 46.6235 20.396 46.7222 20.396C47.0675 20.3467 47.4129 20.285 47.7582 20.211C48.1035 20.1123 48.4489 20.026 48.7942 19.952L50.0522 19.619C50.2989 19.5697 50.5332 19.5203 50.7552 19.471C51.0019 19.397 51.2485 19.323 51.4952 19.249C51.7172 19.1997 51.9392 19.138 52.1612 19.064C52.4079 18.99 52.6422 18.9407 52.8642 18.916C53.2095 18.842 53.5549 18.768 53.9002 18.694C54.2702 18.5953 54.6279 18.509 54.9732 18.435L55.7502 18.324C56.0462 18.2747 56.3299 18.2253 56.6012 18.176C56.8972 18.1267 57.1932 18.0773 57.4892 18.028C57.6125 17.9787 57.7235 17.9417 57.8222 17.917C57.9455 17.8677 58.0565 17.7937 58.1552 17.695C58.3279 17.5223 58.5622 17.3743 58.8582 17.251C59.2035 17.0783 59.5859 17.029 60.0052 17.103C60.7945 17.325 61.3249 17.8307 61.5962 18.62C61.6702 18.768 61.7195 18.9283 61.7442 19.101C61.7689 19.249 61.7812 19.397 61.7812 19.545C61.8059 19.6683 61.8059 19.7917 61.7812 19.915C61.7565 20.0383 61.7195 20.1617 61.6702 20.285C61.6455 20.3837 61.6085 20.4947 61.5592 20.618C61.5099 20.7167 61.4605 20.8153 61.4112 20.914C61.2139 21.284 61.1029 21.6663 61.0782 22.061C61.0782 22.1597 61.0659 22.2583 61.0412 22.357C61.0412 22.431 61.0412 22.5173 61.0412 22.616C61.0165 22.6407 61.0042 22.7023 61.0042 22.801C61.0042 23.0723 61.0042 23.356 61.0042 23.652C61.0042 23.9233 61.0165 24.1947 61.0412 24.466C61.0905 24.762 61.0905 25.0457 61.0412 25.317C60.9919 25.391 60.9919 25.4773 61.0412 25.576V26.131C61.0412 26.2297 61.0412 26.3283 61.0412 26.427C61.0659 26.5257 61.0782 26.6367 61.0782 26.76C61.0782 26.8587 61.0659 26.945 61.0412 27.019C61.0165 27.093 60.9795 27.167 60.9302 27.241C60.8069 27.5123 60.5972 27.611 60.3012 27.537C60.0299 27.463 59.8572 27.389 59.7832 27.315C59.7092 27.2163 59.6352 27.0437 59.5612 26.797C59.5365 26.6983 59.5242 26.5997 59.5242 26.501C59.5242 26.4023 59.5119 26.3037 59.4872 26.205C59.4625 26.1557 59.4502 26.094 59.4502 26.02C59.4502 25.946 59.4379 25.872 59.4132 25.798C59.3392 25.576 59.3022 25.354 59.3022 25.132C59.2775 25.0087 59.2529 24.8977 59.2282 24.799C59.2282 24.6757 59.2282 24.5647 59.2282 24.466C59.2035 24.2933 59.1912 24.133 59.1912 23.985C59.1912 23.837 59.1912 23.7013 59.1912 23.578C59.2159 23.2327 59.2035 22.912 59.1542 22.616C59.1295 22.32 59.1172 22.024 59.1172 21.728C59.0925 21.4813 58.9939 21.2593 58.8212 21.062C58.7965 20.988 58.7349 20.951 58.6362 20.951H58.3032C58.0565 21.0003 57.8592 21.0497 57.7112 21.099C57.4645 21.173 57.2179 21.21 56.9712 21.21C56.8972 21.2347 56.8232 21.247 56.7492 21.247C56.6999 21.247 56.6382 21.2717 56.5642 21.321C56.4162 21.3457 56.2929 21.432 56.1942 21.58C56.1449 21.6293 56.0832 21.6417 56.0092 21.617C55.9599 21.5677 55.9105 21.543 55.8612 21.543C55.7625 21.5677 55.6639 21.5923 55.5652 21.617C55.4665 21.6417 55.3802 21.691 55.3062 21.765C55.2075 21.839 55.0842 21.9007 54.9362 21.95C54.8129 21.9747 54.6895 22.0117 54.5662 22.061L53.7892 22.283C53.6905 22.3077 53.5919 22.3447 53.4932 22.394C53.4192 22.4187 53.3452 22.4557 53.2712 22.505C53.0245 22.6037 52.8272 22.764 52.6792 22.986C52.5559 23.134 52.3955 23.2697 52.1982 23.393C52.0995 23.4423 52.0009 23.504 51.9022 23.578C51.8282 23.652 51.7419 23.726 51.6432 23.8L51.4212 23.948C51.2485 24.0713 51.0635 24.1947 50.8662 24.318C50.6935 24.4167 50.5085 24.5277 50.3112 24.651C49.9165 24.9717 49.4849 25.132 49.0162 25.132C48.9422 25.132 48.8682 25.1443 48.7942 25.169C48.7202 25.169 48.6462 25.1813 48.5722 25.206C48.4735 25.206 48.3872 25.2183 48.3132 25.243C48.2392 25.2677 48.1652 25.3047 48.0912 25.354C48.0419 25.4033 47.9679 25.4403 47.8692 25.465C47.7952 25.4897 47.7212 25.5143 47.6472 25.539C47.2525 25.6377 46.8825 25.539 46.5372 25.243L46.3892 25.095C46.2905 24.9963 46.1672 24.9717 46.0192 25.021C45.9699 25.0457 45.9082 25.058 45.8342 25.058C45.7849 25.058 45.7232 25.0703 45.6492 25.095L44.6132 25.428C44.5639 25.4527 44.5145 25.465 44.4652 25.465C44.4159 25.465 44.3665 25.4773 44.3172 25.502C44.0705 25.6253 43.7992 25.7363 43.5032 25.835C43.2072 25.909 42.9235 25.983 42.6522 26.057C42.6275 26.057 42.6029 26.0693 42.5782 26.094C42.5782 26.094 42.5535 26.094 42.5042 26.094C42.2575 26.2173 41.9862 26.3283 41.6902 26.427C41.3942 26.5257 41.1105 26.649 40.8392 26.797C40.8392 26.797 40.8145 26.8217 40.7652 26.871C40.5925 26.945 40.4199 27.0313 40.2472 27.13C40.0745 27.2287 39.9019 27.3273 39.7292 27.426C39.6059 27.5 39.4949 27.574 39.3962 27.648C39.2975 27.722 39.1865 27.796 39.0632 27.87C38.8905 28.0427 38.6932 28.203 38.4712 28.351C38.2492 28.499 38.1135 28.721 38.0642 29.017C38.0395 29.091 38.0272 29.1897 38.0272 29.313C38.0025 29.4363 37.9779 29.5597 37.9532 29.683C37.9532 29.8063 37.9532 29.9297 37.9532 30.053C37.8792 30.497 37.8422 30.9533 37.8422 31.422C37.8175 31.7427 37.6695 31.977 37.3982 32.125ZM71.8328 32.125C71.5368 32.2483 71.3024 32.2237 71.1298 32.051C70.8584 31.8537 70.7228 31.5947 70.7228 31.274V30.682C70.6981 30.46 70.6734 30.2257 70.6488 29.979C70.6488 29.757 70.6364 29.535 70.6118 29.313C70.6118 29.091 70.5748 28.8937 70.5008 28.721C70.5008 28.6223 70.4391 28.5113 70.3158 28.388C70.2664 28.3387 70.2048 28.277 70.1308 28.203C70.0568 28.129 69.9828 28.0673 69.9088 28.018C69.8841 27.9687 69.8471 27.9317 69.7978 27.907C69.7484 27.8823 69.6991 27.8577 69.6498 27.833C69.5758 27.759 69.5018 27.6727 69.4278 27.574C69.3784 27.4753 69.3414 27.3767 69.3168 27.278C69.2674 27.1793 69.2181 27.1053 69.1688 27.056L68.9468 26.908L68.8358 26.797C68.8111 26.723 68.7741 26.6613 68.7248 26.612C68.6754 26.538 68.6261 26.464 68.5768 26.39C68.5274 26.2913 68.5028 26.205 68.5028 26.131C68.4534 25.909 68.3671 25.7363 68.2438 25.613C68.2191 25.539 68.2191 25.4773 68.2438 25.428C68.2931 25.3047 68.3424 25.1443 68.3918 24.947C68.4164 24.7497 68.4904 24.5523 68.6138 24.355C68.6878 24.2317 68.7494 24.1207 68.7988 24.022C68.8481 23.8987 68.8851 23.7877 68.9098 23.689C69.0331 23.467 69.1071 23.245 69.1318 23.023C69.1318 22.9737 69.1318 22.9367 69.1318 22.912C69.1564 22.8873 69.1688 22.8627 69.1688 22.838C69.2181 22.7393 69.2551 22.653 69.2798 22.579C69.3044 22.4803 69.3168 22.3817 69.3168 22.283C69.3168 22.2337 69.3414 22.1843 69.3908 22.135C69.4154 22.061 69.4154 21.9993 69.3908 21.95C69.3661 21.9007 69.3784 21.8513 69.4278 21.802C69.4771 21.7527 69.5141 21.7033 69.5388 21.654C69.5634 21.58 69.5758 21.4937 69.5758 21.395C69.5758 21.395 69.6128 21.358 69.6868 21.284C69.8101 21.1607 69.8841 21.0373 69.9088 20.914C69.9581 20.7907 69.9951 20.6797 70.0198 20.581C70.0691 20.4577 70.0938 20.3343 70.0938 20.211C70.0938 20.0137 70.1554 19.8903 70.2788 19.841C70.3281 19.841 70.3528 19.804 70.3528 19.73C70.4021 19.656 70.4391 19.582 70.4638 19.508C70.4884 19.434 70.5131 19.36 70.5378 19.286C70.5624 19.212 70.5748 19.1133 70.5748 18.99C70.5254 18.8667 70.5624 18.7803 70.6858 18.731C70.7844 18.7063 70.8338 18.6323 70.8338 18.509V18.398C70.8338 18.2253 70.8831 18.0897 70.9818 17.991C71.0311 17.917 71.0804 17.843 71.1298 17.769C71.1791 17.695 71.2161 17.621 71.2408 17.547C71.3394 17.4483 71.3641 17.3497 71.3148 17.251C71.2654 17.103 71.3148 16.992 71.4628 16.918C71.4874 16.8933 71.4998 16.8687 71.4998 16.844C71.5491 16.7947 71.5738 16.733 71.5738 16.659C71.5738 16.585 71.5984 16.5233 71.6478 16.474C71.6971 16.4247 71.7218 16.3753 71.7218 16.326C71.7218 16.252 71.7341 16.1903 71.7588 16.141V16.104H71.6848C71.5861 16.1533 71.4874 16.215 71.3888 16.289C71.3148 16.3383 71.2408 16.3877 71.1668 16.437C71.0681 16.4863 70.9818 16.5357 70.9078 16.585C70.8338 16.6343 70.7351 16.6713 70.6118 16.696C70.5131 16.7207 70.4144 16.77 70.3158 16.844C70.2418 16.918 70.1554 16.9797 70.0568 17.029C69.8594 17.177 69.7484 17.362 69.7238 17.584C69.7238 17.6827 69.7114 17.806 69.6868 17.954C69.6621 18.0773 69.6498 18.2007 69.6498 18.324C69.6498 18.4473 69.6251 18.583 69.5758 18.731C69.5264 18.8543 69.4771 18.9777 69.4278 19.101C69.3538 19.2737 69.2304 19.397 69.0578 19.471C68.8851 19.5697 68.7001 19.582 68.5028 19.508C68.3054 19.4093 68.1821 19.2737 68.1328 19.101C68.1081 19.0023 68.0834 18.916 68.0588 18.842C68.0588 18.7433 68.0588 18.6447 68.0588 18.546C68.0834 18.324 68.0834 18.1143 68.0588 17.917C68.0588 17.695 68.0588 17.4853 68.0588 17.288C68.0588 16.9673 67.9601 16.6467 67.7628 16.326C67.5901 16.1287 67.4914 15.919 67.4668 15.697C67.4668 15.6477 67.4298 15.586 67.3558 15.512C67.2818 15.438 67.1708 15.3517 67.0228 15.253C66.9241 15.179 66.8501 15.0803 66.8008 14.957C66.7268 14.735 66.6528 14.513 66.5788 14.291C66.5294 14.069 66.5171 13.8347 66.5418 13.588C66.5418 13.3167 66.6281 13.0577 66.8008 12.811C67.1708 12.2683 67.6888 11.96 68.3548 11.886H68.5398C68.8604 11.9107 69.1688 11.8983 69.4648 11.849C69.7608 11.775 70.0568 11.7133 70.3528 11.664L71.0928 11.479C71.4874 11.3803 71.8698 11.294 72.2398 11.22C72.6098 11.1213 72.9921 11.0227 73.3868 10.924C73.6581 10.8747 73.8431 10.7267 73.9418 10.48L74.4968 9.148C74.7188 8.65467 74.9778 8.17367 75.2738 7.705L76.0508 6.299C76.1248 6.17567 76.1988 6.05233 76.2728 5.929C76.3714 5.781 76.4578 5.633 76.5318 5.485C76.6798 5.21367 76.8154 4.94233 76.9388 4.671C77.0128 4.54767 76.9634 4.46133 76.7908 4.412H76.4208C76.2234 4.43667 76.0138 4.46133 75.7918 4.486C75.5944 4.51066 75.3971 4.53533 75.1998 4.56L74.5338 4.671C74.2378 4.69566 73.9294 4.73267 73.6088 4.782C73.3128 4.83133 73.0168 4.88067 72.7208 4.93L72.2028 5.041C72.1534 5.041 72.0794 5.09033 71.9808 5.189C71.9561 5.28767 71.8698 5.337 71.7218 5.337H71.6848C71.5368 5.28767 71.3888 5.28767 71.2408 5.337C71.0928 5.36166 70.9448 5.36166 70.7968 5.337C70.7968 5.337 70.7844 5.337 70.7598 5.337C70.7598 5.337 70.7598 5.34933 70.7598 5.374C70.6118 5.42333 70.4638 5.47267 70.3158 5.522C70.1678 5.54666 70.0198 5.58367 69.8718 5.633C69.6251 5.707 69.4278 5.818 69.2798 5.966C69.1811 6.06467 69.0824 6.151 68.9838 6.225C68.8851 6.27433 68.7741 6.32367 68.6508 6.373C68.5521 6.39766 68.4411 6.43467 68.3178 6.484C68.2191 6.53333 68.1081 6.58267 67.9848 6.632C67.7874 6.73067 67.5778 6.817 67.3558 6.891C67.1338 6.965 66.9118 7.05133 66.6898 7.15L66.5048 7.261C66.3074 7.35966 66.1841 7.53233 66.1348 7.779L66.0238 8.149C66.0238 8.24767 65.9621 8.38333 65.8388 8.556C65.8141 8.556 65.7771 8.58067 65.7278 8.63C65.5551 8.852 65.3331 8.889 65.0618 8.741C64.8891 8.64233 64.7658 8.50667 64.6918 8.334L64.5808 8.001C64.5561 7.90233 64.5191 7.779 64.4698 7.631C64.4451 7.45833 64.3464 7.31033 64.1738 7.187L64.0628 7.113C63.4954 6.69367 63.1501 6.10167 63.0268 5.337C62.9281 4.86833 63.0391 4.38733 63.3598 3.894C63.4584 3.79533 63.5201 3.72133 63.5448 3.672C63.6928 3.45 63.8901 3.302 64.1368 3.228C64.2601 3.17867 64.3711 3.14166 64.4698 3.117C64.5931 3.06767 64.7041 3.03067 64.8028 3.006C64.8768 2.98133 65.0124 2.969 65.2098 2.969C65.3084 2.94433 65.3948 2.932 65.4688 2.932C65.5674 2.932 65.6661 2.91967 65.7648 2.895C66.1101 2.87033 66.4554 2.821 66.8008 2.747C67.1708 2.64833 67.5284 2.57433 67.8738 2.525L68.9838 2.303C69.1811 2.25367 69.3538 2.21667 69.5018 2.192C69.6744 2.14267 69.8471 2.10567 70.0198 2.081C70.3158 2.03167 70.5994 1.97 70.8708 1.896C71.1668 1.822 71.4628 1.76033 71.7588 1.711C71.9314 1.66166 72.0918 1.637 72.2398 1.637C72.4124 1.61233 72.5728 1.58767 72.7208 1.563L74.3488 1.341C74.5461 1.31633 74.7311 1.304 74.9038 1.304C75.1011 1.27933 75.2861 1.267 75.4588 1.267C75.6068 1.267 75.7424 1.267 75.8658 1.267C76.0138 1.267 76.1618 1.25466 76.3098 1.23C76.3344 1.23 76.3468 1.23 76.3468 1.23C76.3714 1.20533 76.3961 1.193 76.4208 1.193C76.7168 1.16833 77.0128 1.156 77.3088 1.156C77.6048 1.13133 77.9008 1.10666 78.1968 1.082C78.4928 1.05733 78.7641 1.09433 79.0108 1.193C79.2821 1.29167 79.5411 1.415 79.7878 1.563C79.8371 1.61233 79.8864 1.64933 79.9358 1.674C80.2071 1.94533 80.4168 2.25367 80.5648 2.599C80.7128 2.91967 80.7621 3.28967 80.7128 3.709C80.6634 4.10367 80.5894 4.46133 80.4908 4.782C80.4414 4.95467 80.3921 5.12733 80.3428 5.3C80.2934 5.47267 80.2194 5.633 80.1208 5.781C80.0714 5.90433 80.0221 6.04 79.9728 6.188C79.8988 6.41 79.8124 6.632 79.7138 6.854C79.6398 7.05133 79.5534 7.261 79.4548 7.483L79.0108 8.408C78.9861 8.50667 78.9368 8.60533 78.8628 8.704C78.8134 8.80267 78.7641 8.91367 78.7148 9.037C78.6901 9.06167 78.6778 9.09867 78.6778 9.148C78.6778 9.19733 78.6654 9.24667 78.6408 9.296C78.6408 9.39467 78.6654 9.444 78.7148 9.444C78.7641 9.46867 78.8011 9.481 78.8258 9.481C78.8751 9.481 78.9121 9.49333 78.9368 9.518C78.9861 9.518 79.0231 9.53033 79.0478 9.555C79.0971 9.555 79.1341 9.555 79.1588 9.555C79.5041 9.60433 79.7878 9.72767 80.0098 9.925C80.2318 10.0977 80.4291 10.3197 80.6018 10.591C80.7498 10.8623 80.8608 11.1337 80.9348 11.405C81.0581 11.7997 81.0211 12.1697 80.8238 12.515C80.5524 13.0083 80.1948 13.3783 79.7508 13.625C79.3314 13.847 78.8874 13.921 78.4188 13.847C78.2214 13.7977 78.0241 13.7977 77.8268 13.847C77.6294 13.8717 77.4321 13.9087 77.2348 13.958C77.1114 13.958 76.9634 14.0197 76.7908 14.143C76.6921 14.1923 76.5934 14.2417 76.4948 14.291C76.4208 14.3403 76.3344 14.3897 76.2358 14.439L76.0138 14.55C75.9644 14.5993 75.9151 14.661 75.8658 14.735C75.8164 14.7843 75.7671 14.846 75.7178 14.92C75.7178 14.9693 75.7054 15.0063 75.6808 15.031C75.6561 15.2283 75.5944 15.4257 75.4958 15.623C75.4218 15.7957 75.3478 15.9807 75.2738 16.178L75.0518 16.844C75.0271 16.8933 75.0024 16.9427 74.9778 16.992C74.9778 17.0413 74.9654 17.0907 74.9408 17.14C74.8421 17.4607 74.7188 17.7813 74.5708 18.102C74.4474 18.4227 74.3241 18.7433 74.2008 19.064C74.1268 19.2367 74.0528 19.4217 73.9788 19.619C73.9048 19.8163 73.8061 20.0137 73.6828 20.211C73.6828 20.211 73.6704 20.2233 73.6458 20.248C73.6458 20.248 73.6458 20.2603 73.6458 20.285C73.5964 20.507 73.5224 20.7167 73.4238 20.914C73.3251 21.1113 73.2511 21.321 73.2018 21.543C73.1771 21.6417 73.1524 21.7403 73.1278 21.839C73.1031 21.913 73.0661 21.987 73.0168 22.061C72.9921 22.0857 72.9798 22.1227 72.9798 22.172C72.9798 22.1967 72.9674 22.2337 72.9428 22.283C72.8688 22.579 72.9674 22.69 73.2388 22.616C73.5594 22.542 73.8678 22.4803 74.1638 22.431C74.4844 22.357 74.7928 22.2707 75.0888 22.172C75.4834 22.0733 75.8658 21.987 76.2358 21.913C76.6058 21.8143 76.9758 21.728 77.3458 21.654C77.5431 21.6047 77.7404 21.5553 77.9378 21.506C78.1598 21.432 78.3571 21.3827 78.5298 21.358C78.8998 21.2347 79.1958 21.062 79.4178 20.84C79.5411 20.6673 79.7261 20.544 79.9728 20.47C80.1701 20.3467 80.3674 20.322 80.5648 20.396C80.6881 20.4207 80.7868 20.433 80.8608 20.433C80.9594 20.4083 81.0581 20.396 81.1568 20.396C81.5021 20.3467 81.8474 20.285 82.1928 20.211C82.5381 20.1123 82.8834 20.026 83.2288 19.952L84.4868 19.619C84.7334 19.5697 84.9678 19.5203 85.1898 19.471C85.4364 19.397 85.6831 19.323 85.9298 19.249C86.1518 19.1997 86.3738 19.138 86.5958 19.064C86.8424 18.99 87.0768 18.9407 87.2988 18.916C87.6441 18.842 87.9894 18.768 88.3348 18.694C88.7048 18.5953 89.0624 18.509 89.4078 18.435L90.1848 18.324C90.4808 18.2747 90.7644 18.2253 91.0358 18.176C91.3318 18.1267 91.6278 18.0773 91.9238 18.028C92.0471 17.9787 92.1581 17.9417 92.2568 17.917C92.3801 17.8677 92.4911 17.7937 92.5898 17.695C92.7624 17.5223 92.9968 17.3743 93.2928 17.251C93.6381 17.0783 94.0204 17.029 94.4398 17.103C95.2291 17.325 95.7594 17.8307 96.0308 18.62C96.1048 18.768 96.1541 18.9283 96.1788 19.101C96.2034 19.249 96.2158 19.397 96.2158 19.545C96.2404 19.6683 96.2404 19.7917 96.2158 19.915C96.1911 20.0383 96.1541 20.1617 96.1048 20.285C96.0801 20.3837 96.0431 20.4947 95.9938 20.618C95.9444 20.7167 95.8951 20.8153 95.8458 20.914C95.6484 21.284 95.5374 21.6663 95.5128 22.061C95.5128 22.1597 95.5004 22.2583 95.4758 22.357C95.4758 22.431 95.4758 22.5173 95.4758 22.616C95.4511 22.6407 95.4388 22.7023 95.4388 22.801C95.4388 23.0723 95.4388 23.356 95.4388 23.652C95.4388 23.9233 95.4511 24.1947 95.4758 24.466C95.5251 24.762 95.5251 25.0457 95.4758 25.317C95.4264 25.391 95.4264 25.4773 95.4758 25.576V26.131C95.4758 26.2297 95.4758 26.3283 95.4758 26.427C95.5004 26.5257 95.5128 26.6367 95.5128 26.76C95.5128 26.8587 95.5004 26.945 95.4758 27.019C95.4511 27.093 95.4141 27.167 95.3648 27.241C95.2414 27.5123 95.0318 27.611 94.7358 27.537C94.4644 27.463 94.2918 27.389 94.2178 27.315C94.1438 27.2163 94.0698 27.0437 93.9958 26.797C93.9711 26.6983 93.9588 26.5997 93.9588 26.501C93.9588 26.4023 93.9464 26.3037 93.9218 26.205C93.8971 26.1557 93.8848 26.094 93.8848 26.02C93.8848 25.946 93.8724 25.872 93.8478 25.798C93.7738 25.576 93.7368 25.354 93.7368 25.132C93.7121 25.0087 93.6874 24.8977 93.6628 24.799C93.6628 24.6757 93.6628 24.5647 93.6628 24.466C93.6381 24.2933 93.6258 24.133 93.6258 23.985C93.6258 23.837 93.6258 23.7013 93.6258 23.578C93.6504 23.2327 93.6381 22.912 93.5888 22.616C93.5641 22.32 93.5518 22.024 93.5518 21.728C93.5271 21.4813 93.4284 21.2593 93.2558 21.062C93.2311 20.988 93.1694 20.951 93.0708 20.951H92.7378C92.4911 21.0003 92.2938 21.0497 92.1458 21.099C91.8991 21.173 91.6524 21.21 91.4058 21.21C91.3318 21.2347 91.2578 21.247 91.1838 21.247C91.1344 21.247 91.0728 21.2717 90.9988 21.321C90.8508 21.3457 90.7274 21.432 90.6288 21.58C90.5794 21.6293 90.5178 21.6417 90.4438 21.617C90.3944 21.5677 90.3451 21.543 90.2958 21.543C90.1971 21.5677 90.0984 21.5923 89.9998 21.617C89.9011 21.6417 89.8148 21.691 89.7408 21.765C89.6421 21.839 89.5188 21.9007 89.3708 21.95C89.2474 21.9747 89.1241 22.0117 89.0008 22.061L88.2238 22.283C88.1251 22.3077 88.0264 22.3447 87.9278 22.394C87.8538 22.4187 87.7798 22.4557 87.7058 22.505C87.4591 22.6037 87.2618 22.764 87.1138 22.986C86.9904 23.134 86.8301 23.2697 86.6328 23.393C86.5341 23.4423 86.4354 23.504 86.3368 23.578C86.2628 23.652 86.1764 23.726 86.0778 23.8L85.8558 23.948C85.6831 24.0713 85.4981 24.1947 85.3008 24.318C85.1281 24.4167 84.9431 24.5277 84.7458 24.651C84.3511 24.9717 83.9194 25.132 83.4508 25.132C83.3768 25.132 83.3028 25.1443 83.2288 25.169C83.1548 25.169 83.0808 25.1813 83.0068 25.206C82.9081 25.206 82.8218 25.2183 82.7478 25.243C82.6738 25.2677 82.5998 25.3047 82.5258 25.354C82.4764 25.4033 82.4024 25.4403 82.3038 25.465C82.2298 25.4897 82.1558 25.5143 82.0818 25.539C81.6871 25.6377 81.3171 25.539 80.9718 25.243L80.8238 25.095C80.7251 24.9963 80.6018 24.9717 80.4538 25.021C80.4044 25.0457 80.3428 25.058 80.2688 25.058C80.2194 25.058 80.1578 25.0703 80.0838 25.095L79.0478 25.428C78.9984 25.4527 78.9491 25.465 78.8998 25.465C78.8504 25.465 78.8011 25.4773 78.7518 25.502C78.5051 25.6253 78.2338 25.7363 77.9378 25.835C77.6418 25.909 77.3581 25.983 77.0868 26.057C77.0621 26.057 77.0374 26.0693 77.0128 26.094C77.0128 26.094 76.9881 26.094 76.9388 26.094C76.6921 26.2173 76.4208 26.3283 76.1248 26.427C75.8288 26.5257 75.5451 26.649 75.2738 26.797C75.2738 26.797 75.2491 26.8217 75.1998 26.871C75.0271 26.945 74.8544 27.0313 74.6818 27.13C74.5091 27.2287 74.3364 27.3273 74.1638 27.426C74.0404 27.5 73.9294 27.574 73.8308 27.648C73.7321 27.722 73.6211 27.796 73.4978 27.87C73.3251 28.0427 73.1278 28.203 72.9058 28.351C72.6838 28.499 72.5481 28.721 72.4988 29.017C72.4741 29.091 72.4618 29.1897 72.4618 29.313C72.4371 29.4363 72.4124 29.5597 72.3878 29.683C72.3878 29.8063 72.3878 29.9297 72.3878 30.053C72.3138 30.497 72.2768 30.9533 72.2768 31.422C72.2521 31.7427 72.1041 31.977 71.8328 32.125ZM100.887 30.83C100.863 30.83 100.776 30.8053 100.628 30.756C100.554 30.7313 100.468 30.645 100.369 30.497C100.345 30.423 100.32 30.349 100.295 30.275C100.271 30.201 100.258 30.127 100.258 30.053C100.184 29.683 100.147 29.313 100.147 28.943V26.39C100.147 26.168 100.123 25.946 100.073 25.724C100.024 25.502 99.9746 25.28 99.9253 25.058C99.9253 25.0087 99.9006 24.9347 99.8513 24.836C99.8266 24.762 99.7896 24.688 99.7403 24.614C99.691 24.5153 99.6416 24.429 99.5923 24.355C99.4936 24.1823 99.4196 23.9973 99.3703 23.8C99.321 23.6027 99.284 23.4177 99.2593 23.245C99.2346 22.9737 99.2346 22.7147 99.2593 22.468C99.3086 22.32 99.3456 22.1843 99.3703 22.061C99.395 21.913 99.432 21.7773 99.4813 21.654C99.5553 21.4567 99.617 21.2593 99.6663 21.062C99.7156 20.84 99.7773 20.618 99.8513 20.396L100.406 18.583C100.579 18.065 100.801 17.5347 101.072 16.992C101.344 16.474 101.603 15.8943 101.849 15.253C101.899 15.105 101.96 14.9447 102.034 14.772C102.133 14.5007 102.232 14.2417 102.33 13.995C102.454 13.7237 102.565 13.4647 102.663 13.218L103.218 11.664C103.268 11.5653 103.305 11.4667 103.329 11.368C103.354 11.2693 103.379 11.1707 103.403 11.072C103.601 10.5787 103.798 10.11 103.995 9.666C104.143 9.37 104.242 9.04933 104.291 8.704C104.341 8.35867 104.341 8.01333 104.291 7.668C104.267 7.52 104.242 7.372 104.217 7.224C104.217 7.05133 104.217 6.891 104.217 6.743C104.217 6.669 104.193 6.60733 104.143 6.558C104.119 6.484 104.119 6.41 104.143 6.336C104.168 6.28667 104.193 6.23733 104.217 6.188C104.267 6.13867 104.304 6.08933 104.328 6.04C104.402 5.76867 104.513 5.53433 104.661 5.337C104.834 5.115 105.019 4.91767 105.216 4.745C105.315 4.64633 105.451 4.57233 105.623 4.523C105.722 4.47367 105.808 4.42433 105.882 4.375C105.981 4.32567 106.067 4.264 106.141 4.19C106.265 4.09133 106.4 4.02967 106.548 4.005C106.746 3.98033 106.955 3.90633 107.177 3.783C107.375 3.65967 107.597 3.62267 107.843 3.672H108.176C108.349 3.672 108.534 3.73366 108.731 3.857C108.781 3.88167 108.83 3.91867 108.879 3.968C108.953 3.99266 109.027 4.02967 109.101 4.079C109.299 4.227 109.397 4.412 109.397 4.634C109.397 4.80667 109.41 4.967 109.434 5.115C109.484 5.263 109.521 5.42333 109.545 5.596C109.595 5.744 109.595 5.90433 109.545 6.077C109.521 6.12633 109.508 6.188 109.508 6.262C109.508 6.31133 109.496 6.36067 109.471 6.41C109.471 6.50866 109.459 6.60733 109.434 6.706C109.434 6.80467 109.422 6.90333 109.397 7.002C109.323 7.17467 109.348 7.34733 109.471 7.52C109.669 7.84067 109.841 8.17367 109.989 8.519C110.162 8.86433 110.335 9.20967 110.507 9.555L111.173 10.739C111.371 11.0597 111.568 11.442 111.765 11.886C111.815 11.96 111.852 12.034 111.876 12.108C111.926 12.182 111.975 12.256 112.024 12.33C112.098 12.4533 112.16 12.589 112.209 12.737C112.283 12.885 112.357 13.033 112.431 13.181C112.629 13.551 112.789 13.9333 112.912 14.328C113.06 14.698 113.208 15.0927 113.356 15.512C113.356 15.5367 113.356 15.5613 113.356 15.586C113.381 15.586 113.393 15.5983 113.393 15.623C113.418 15.7957 113.541 15.882 113.763 15.882C113.837 15.8573 113.911 15.845 113.985 15.845C114.084 15.845 114.17 15.845 114.244 15.845C114.516 15.845 114.75 15.8943 114.947 15.993C115.071 16.0177 115.194 16.0917 115.317 16.215C115.515 16.4123 115.65 16.5727 115.724 16.696C115.798 16.8193 115.848 17.0043 115.872 17.251C115.971 17.7197 115.872 18.1267 115.576 18.472L115.354 18.657C115.305 18.7063 115.243 18.7557 115.169 18.805C115.095 18.8297 115.034 18.8667 114.984 18.916C114.861 19.0147 114.787 19.0887 114.762 19.138C114.762 19.1873 114.799 19.2983 114.873 19.471L115.428 20.803C115.65 21.2963 115.872 21.7897 116.094 22.283C116.341 22.7763 116.588 23.2697 116.834 23.763C116.933 23.9357 117.007 24.1083 117.056 24.281C117.13 24.4537 117.18 24.6387 117.204 24.836C117.229 24.984 117.229 25.132 117.204 25.28C117.204 25.428 117.192 25.576 117.167 25.724C117.167 25.7487 117.143 25.835 117.093 25.983C117.019 26.0817 116.945 26.1803 116.871 26.279C116.822 26.3777 116.76 26.4763 116.686 26.575C116.489 26.8463 116.329 27.1547 116.205 27.5C116.156 27.722 115.996 27.8947 115.724 28.018C115.576 28.092 115.416 28.092 115.243 28.018C115.021 27.944 114.873 27.796 114.799 27.574L114.725 27.389C114.651 27.1423 114.54 26.908 114.392 26.686C114.294 26.5133 114.195 26.3407 114.096 26.168C114.022 25.9707 113.936 25.7857 113.837 25.613C113.813 25.5637 113.8 25.5267 113.8 25.502C113.8 25.4527 113.788 25.4157 113.763 25.391C113.739 25.243 113.689 25.1073 113.615 24.984C113.566 24.836 113.504 24.7003 113.43 24.577C113.282 24.207 113.122 23.8493 112.949 23.504C112.801 23.134 112.641 22.764 112.468 22.394L111.913 21.21C111.889 21.136 111.864 21.062 111.839 20.988C111.815 20.8893 111.778 20.7907 111.728 20.692L111.284 19.693C111.284 19.6437 111.26 19.5697 111.21 19.471C111.087 19.2737 110.927 19.1627 110.729 19.138C110.557 19.138 110.396 19.1257 110.248 19.101C110.1 19.0763 109.952 19.064 109.804 19.064C109.41 19.064 109.015 19.101 108.62 19.175C108.226 19.249 107.856 19.3847 107.51 19.582C107.042 19.8533 106.561 20.026 106.067 20.1C105.969 20.1 105.87 20.1123 105.771 20.137C105.673 20.1617 105.574 20.1987 105.475 20.248C105.327 20.3467 105.241 20.4577 105.216 20.581C105.167 20.729 105.142 20.84 105.142 20.914L105.031 21.432C105.007 21.6047 104.908 21.7773 104.735 21.95C104.612 22.0733 104.439 22.135 104.217 22.135C103.897 22.0857 103.687 21.9253 103.588 21.654C103.564 21.58 103.539 21.506 103.514 21.432C103.49 21.358 103.465 21.2717 103.44 21.173C103.342 21.321 103.329 21.4443 103.403 21.543C103.453 21.6417 103.428 21.728 103.329 21.802C103.28 21.8513 103.268 21.8883 103.292 21.913C103.342 22.0117 103.329 22.098 103.255 22.172C103.181 22.246 103.157 22.3323 103.181 22.431C103.206 22.4803 103.206 22.542 103.181 22.616C103.058 22.7887 102.972 22.9983 102.922 23.245C102.947 23.3437 102.885 23.4177 102.737 23.467C102.688 23.467 102.663 23.4917 102.663 23.541C102.614 23.615 102.565 23.726 102.515 23.874C102.491 23.9973 102.454 24.133 102.404 24.281C102.38 24.4043 102.343 24.5277 102.293 24.651L102.071 25.576V25.724C102.071 25.946 102.047 26.168 101.997 26.39C101.973 26.5873 101.96 26.797 101.96 27.019L101.849 28.24C101.825 28.4127 101.8 28.5853 101.775 28.758C101.775 28.9553 101.775 29.1527 101.775 29.35C101.751 29.498 101.726 29.6337 101.701 29.757C101.701 29.905 101.677 30.053 101.627 30.201C101.578 30.423 101.492 30.5833 101.368 30.682C101.27 30.83 101.109 30.8793 100.887 30.83ZM105.697 15.845H105.734C105.981 15.7957 106.215 15.7587 106.437 15.734C106.659 15.7093 106.881 15.6847 107.103 15.66C107.251 15.6353 107.399 15.623 107.547 15.623C107.695 15.5983 107.843 15.586 107.991 15.586H108.768C108.818 15.586 108.867 15.586 108.916 15.586C108.966 15.5613 109.003 15.549 109.027 15.549C109.077 15.549 109.101 15.4997 109.101 15.401C109.027 15.3023 108.966 15.2037 108.916 15.105C108.867 15.0063 108.818 14.9077 108.768 14.809C108.62 14.4637 108.423 14.1677 108.176 13.921C108.152 13.8717 108.127 13.8347 108.102 13.81C108.078 13.7607 108.053 13.7113 108.028 13.662C108.004 13.6127 107.967 13.5633 107.917 13.514C107.893 13.44 107.856 13.3783 107.806 13.329C107.683 13.2303 107.56 13.255 107.436 13.403L107.325 13.699C107.301 13.8963 107.264 14.106 107.214 14.328C107.165 14.5253 107.116 14.7227 107.066 14.92C107.066 14.9693 107.042 15.0433 106.992 15.142C106.943 15.29 106.82 15.401 106.622 15.475C106.45 15.549 106.265 15.5243 106.067 15.401L105.845 15.253C105.845 15.253 105.821 15.253 105.771 15.253C105.722 15.3517 105.697 15.4257 105.697 15.475C105.697 15.5243 105.697 15.5737 105.697 15.623C105.722 15.6723 105.71 15.7217 105.66 15.771C105.611 15.8203 105.623 15.845 105.697 15.845ZM141.894 32.421C141.499 32.6677 141.179 32.5813 140.932 32.162C140.833 32.014 140.784 31.8783 140.784 31.755L140.673 31.237C140.648 30.867 140.599 30.497 140.525 30.127C140.451 29.757 140.365 29.3747 140.266 28.98C140.266 28.9307 140.254 28.8813 140.229 28.832C140.229 28.8073 140.229 28.7703 140.229 28.721C140.229 28.6223 140.217 28.5483 140.192 28.499C140.118 28.129 139.921 27.8577 139.6 27.685C139.378 27.5617 139.144 27.4507 138.897 27.352C138.675 27.2287 138.441 27.1177 138.194 27.019L137.269 26.575C137.072 26.4763 136.887 26.316 136.714 26.094C136.443 25.798 136.196 25.4897 135.974 25.169C135.752 24.8483 135.567 24.503 135.419 24.133C135.37 23.985 135.308 23.837 135.234 23.689C135.185 23.541 135.135 23.393 135.086 23.245C135.037 23.1217 135 22.9983 134.975 22.875C134.95 22.7517 134.913 22.6407 134.864 22.542L134.642 21.765C134.593 21.6663 134.568 21.5677 134.568 21.469C134.543 21.2963 134.519 21.136 134.494 20.988C134.494 20.8153 134.469 20.6427 134.42 20.47C134.395 20.2973 134.371 20.1247 134.346 19.952C134.346 19.7793 134.346 19.6067 134.346 19.434C134.346 19.3353 134.334 19.2613 134.309 19.212C134.284 18.8667 134.272 18.5337 134.272 18.213C134.272 17.8923 134.26 17.5717 134.235 17.251C134.235 17.0537 134.235 16.8563 134.235 16.659C134.235 16.4617 134.247 16.2767 134.272 16.104L134.383 14.772C134.383 14.698 134.383 14.6363 134.383 14.587C134.408 14.513 134.42 14.4513 134.42 14.402C134.445 14.0813 134.469 13.773 134.494 13.477C134.543 13.181 134.605 12.885 134.679 12.589C134.728 12.515 134.753 12.441 134.753 12.367C134.753 12.293 134.753 12.219 134.753 12.145C134.827 11.8737 134.889 11.6023 134.938 11.331C135.012 11.035 135.074 10.739 135.123 10.443L135.345 9.222C135.394 9.02467 135.431 8.82733 135.456 8.63C135.505 8.43267 135.555 8.23533 135.604 8.038C135.801 7.19933 136.147 6.484 136.64 5.892C136.936 5.47267 137.281 5.13967 137.676 4.893C137.972 4.69567 138.268 4.49833 138.564 4.301C138.885 4.10367 139.205 3.931 139.526 3.783C139.871 3.58567 140.229 3.413 140.599 3.265C140.969 3.117 141.351 2.98133 141.746 2.858C141.919 2.80867 142.079 2.75933 142.227 2.71C142.4 2.66067 142.572 2.62366 142.745 2.599C143.041 2.525 143.337 2.50033 143.633 2.525C143.929 2.525 144.213 2.58667 144.484 2.71C144.829 2.83333 145.125 2.99367 145.372 3.191C145.495 3.28967 145.619 3.38833 145.742 3.487C145.89 3.561 146.013 3.65967 146.112 3.783C146.63 4.153 146.963 4.65867 147.111 5.3C147.136 5.39867 147.16 5.49733 147.185 5.596C147.21 5.67 147.222 5.76866 147.222 5.892C147.247 6.336 147.173 6.75533 147 7.15C146.951 7.24867 146.889 7.35967 146.815 7.483C146.766 7.58167 146.692 7.68033 146.593 7.779C146.47 7.927 146.346 8.08733 146.223 8.26C146.124 8.408 146.013 8.556 145.89 8.704C145.668 8.95067 145.557 9.259 145.557 9.629V11.923C145.557 12.0217 145.545 12.1203 145.52 12.219C145.52 12.293 145.52 12.3793 145.52 12.478C145.495 12.6013 145.483 12.737 145.483 12.885C145.483 13.0083 145.483 13.1317 145.483 13.255C145.483 13.3783 145.532 13.4153 145.631 13.366H145.742C145.816 13.3413 145.878 13.329 145.927 13.329C146.001 13.329 146.063 13.3167 146.112 13.292C146.482 13.1687 146.852 13.0823 147.222 13.033C147.592 12.959 147.974 12.9097 148.369 12.885C148.714 12.8357 149.047 12.8357 149.368 12.885C149.689 12.9097 150.009 12.959 150.33 13.033C150.552 13.107 150.762 13.1933 150.959 13.292C151.181 13.366 151.378 13.477 151.551 13.625C151.674 13.7237 151.798 13.8347 151.921 13.958C152.044 14.0567 152.143 14.1677 152.217 14.291C152.39 14.5377 152.525 14.7967 152.624 15.068C152.747 15.3147 152.809 15.5737 152.809 15.845V15.882C152.858 16.1287 152.883 16.3753 152.883 16.622C152.883 16.8687 152.858 17.1153 152.809 17.362C152.784 17.51 152.76 17.658 152.735 17.806C152.71 17.9293 152.686 18.065 152.661 18.213C152.612 18.435 152.55 18.657 152.476 18.879C152.427 19.101 152.377 19.323 152.328 19.545C152.303 19.6437 152.279 19.7423 152.254 19.841C152.254 19.915 152.254 20.0013 152.254 20.1V22.246C152.254 22.4433 152.266 22.6407 152.291 22.838C152.316 23.0353 152.34 23.2327 152.365 23.43C152.39 23.5533 152.414 23.6767 152.439 23.8C152.488 23.9233 152.525 24.0467 152.55 24.17C152.55 24.2193 152.599 24.2933 152.698 24.392C152.821 24.5153 152.895 24.651 152.92 24.799C152.92 24.873 152.932 24.9223 152.957 24.947C153.056 25.169 153.105 25.428 153.105 25.724C153.105 25.8227 153.093 25.9213 153.068 26.02C153.068 26.1187 153.08 26.2297 153.105 26.353C153.154 26.501 153.117 26.6367 152.994 26.76C152.945 26.8093 152.908 26.871 152.883 26.945C152.858 27.019 152.821 27.093 152.772 27.167C152.698 27.315 152.599 27.4507 152.476 27.574C152.402 27.5987 152.34 27.648 152.291 27.722C152.242 27.796 152.192 27.8577 152.143 27.907C151.946 28.129 151.711 28.203 151.44 28.129C151.415 28.129 151.378 28.1167 151.329 28.092C151.304 28.092 151.28 28.092 151.255 28.092C151.033 28.0673 150.836 27.9933 150.663 27.87C150.515 27.7713 150.367 27.648 150.219 27.5C150.17 27.426 150.108 27.352 150.034 27.278C149.985 27.1793 149.923 27.093 149.849 27.019C149.775 26.9203 149.713 26.8093 149.664 26.686C149.639 26.5627 149.602 26.4517 149.553 26.353C149.454 26.0077 149.343 25.65 149.22 25.28C149.121 24.91 149.047 24.54 148.998 24.17C148.949 23.8247 148.887 23.4793 148.813 23.134C148.739 22.764 148.69 22.394 148.665 22.024C148.616 21.8267 148.591 21.654 148.591 21.506C148.542 21.4073 148.517 21.358 148.517 21.358C148.418 21.4073 148.357 21.4443 148.332 21.469C148.085 21.765 147.814 22.061 147.518 22.357C147.222 22.6283 146.938 22.912 146.667 23.208C146.618 23.282 146.556 23.356 146.482 23.43C146.433 23.4793 146.383 23.5287 146.334 23.578C146.186 23.726 146.038 23.874 145.89 24.022C145.742 24.1453 145.606 24.281 145.483 24.429C145.384 24.503 145.298 24.577 145.224 24.651C145.15 24.725 145.064 24.7867 144.965 24.836C144.916 24.8853 144.866 24.9347 144.817 24.984C144.768 25.0333 144.718 25.0827 144.669 25.132C144.57 25.2307 144.472 25.3293 144.373 25.428C144.299 25.502 144.2 25.576 144.077 25.65L143.929 25.798C143.534 26.1187 143.14 26.4023 142.745 26.649C142.326 26.871 142.116 27.2287 142.116 27.722C142.116 27.87 142.116 28.018 142.116 28.166C142.116 28.314 142.128 28.462 142.153 28.61C142.153 28.6347 142.153 28.647 142.153 28.647C142.178 28.647 142.19 28.6593 142.19 28.684C142.215 29.1527 142.239 29.6213 142.264 30.09C142.313 30.5833 142.326 31.0767 142.301 31.57C142.276 31.644 142.264 31.7427 142.264 31.866C142.215 32.088 142.091 32.273 141.894 32.421ZM141.672 21.913C142.116 22.135 142.548 22.1227 142.967 21.876C143.041 21.802 143.103 21.7527 143.152 21.728C143.349 21.58 143.534 21.432 143.707 21.284C143.88 21.1113 144.052 20.951 144.225 20.803C144.398 20.655 144.558 20.507 144.706 20.359C144.854 20.1863 145.014 20.026 145.187 19.878C145.384 19.6807 145.582 19.471 145.779 19.249C145.976 19.027 146.161 18.805 146.334 18.583C146.457 18.435 146.556 18.2747 146.63 18.102C146.729 17.9787 146.79 17.8307 146.815 17.658C146.815 17.4853 146.741 17.4237 146.593 17.473C146.47 17.4977 146.346 17.5223 146.223 17.547C146.1 17.5717 145.976 17.6333 145.853 17.732C145.705 17.8307 145.545 17.9293 145.372 18.028C145.224 18.1267 145.064 18.2377 144.891 18.361C144.842 18.4103 144.792 18.4843 144.743 18.583C144.694 18.7557 144.644 18.9653 144.595 19.212C144.595 19.3847 144.583 19.545 144.558 19.693C144.558 19.841 144.546 19.989 144.521 20.137C144.447 20.4823 144.274 20.7043 144.003 20.803C143.83 20.877 143.682 20.8647 143.559 20.766C143.386 20.6673 143.263 20.5317 143.189 20.359C143.14 20.1863 143.09 20.0137 143.041 19.841C142.992 19.6683 142.955 19.4957 142.93 19.323L142.819 18.62C142.819 18.324 142.683 18.0157 142.412 17.695C142.363 17.6457 142.301 17.584 142.227 17.51C142.178 17.436 142.128 17.362 142.079 17.288C141.98 17.14 141.894 16.9797 141.82 16.807C141.771 16.6343 141.721 16.4617 141.672 16.289L141.635 16.03C141.66 15.5613 141.832 15.1543 142.153 14.809C142.548 14.365 142.979 14.0813 143.448 13.958L143.818 13.847C143.966 13.7977 144.015 13.7113 143.966 13.588C143.941 13.4647 143.917 13.3413 143.892 13.218C143.867 13.07 143.843 12.9343 143.818 12.811C143.793 12.5643 143.769 12.33 143.744 12.108C143.744 11.8613 143.719 11.6147 143.67 11.368C143.67 11.368 143.67 11.3063 143.67 11.183C143.645 10.9117 143.608 10.6403 143.559 10.369C143.534 10.073 143.497 9.777 143.448 9.481C143.399 9.23433 143.3 9.037 143.152 8.889C142.955 8.69167 142.733 8.593 142.486 8.593C142.264 8.64233 142.104 8.704 142.005 8.778C141.758 8.95067 141.524 9.12333 141.302 9.296C141.08 9.444 140.833 9.57967 140.562 9.703C140.389 9.80167 140.266 9.91267 140.192 10.036C140.118 10.2087 140.032 10.3813 139.933 10.554C139.859 10.702 139.797 10.8747 139.748 11.072C139.723 11.1953 139.686 11.331 139.637 11.479C139.588 11.6023 139.538 11.7257 139.489 11.849C139.489 11.8983 139.477 11.9477 139.452 11.997C139.427 12.0463 139.403 12.0957 139.378 12.145C139.304 12.3177 139.242 12.478 139.193 12.626C139.144 12.7987 139.094 12.9713 139.045 13.144C138.996 13.3167 138.946 13.5017 138.897 13.699C138.848 13.8717 138.798 14.0813 138.749 14.328C138.7 14.5747 138.65 14.8213 138.601 15.068C138.552 15.3147 138.502 15.5613 138.453 15.808C138.428 15.9067 138.404 16.0053 138.379 16.104C138.379 16.178 138.379 16.2767 138.379 16.4C138.379 16.4987 138.379 16.6097 138.379 16.733C138.379 16.8563 138.354 16.9797 138.305 17.103C138.305 17.177 138.293 17.2633 138.268 17.362C138.268 17.436 138.268 17.51 138.268 17.584C138.268 17.658 138.268 17.732 138.268 17.806C138.293 17.88 138.305 17.9787 138.305 18.102C138.28 18.2747 138.28 18.4843 138.305 18.731C138.33 18.953 138.354 19.175 138.379 19.397L138.453 19.693C138.502 19.841 138.564 20.0013 138.638 20.174C138.712 20.322 138.798 20.4577 138.897 20.581C139.144 20.8523 139.378 21.0743 139.6 21.247C139.822 21.4197 139.97 21.5307 140.044 21.58C140.143 21.6047 140.34 21.617 140.636 21.617C140.858 21.617 141.08 21.654 141.302 21.728C141.401 21.7527 141.524 21.8143 141.672 21.913ZM163.124 46.222C162.976 46.222 162.853 46.1603 162.754 46.037C162.656 45.9383 162.582 45.8397 162.532 45.741C162.458 45.5437 162.421 45.3587 162.421 45.186C162.397 44.9887 162.372 44.779 162.347 44.557C162.347 44.3597 162.335 44.15 162.31 43.928C162.31 43.5333 162.273 43.151 162.199 42.781C162.199 42.633 162.187 42.485 162.162 42.337C162.138 42.189 162.125 42.041 162.125 41.893C162.15 41.8437 162.15 41.782 162.125 41.708C162.125 41.6587 162.125 41.597 162.125 41.523C162.101 41.3997 162.088 41.2763 162.088 41.153C162.088 41.0543 162.088 40.9557 162.088 40.857C162.064 40.7583 162.051 40.635 162.051 40.487C161.977 40.2403 161.965 39.9937 162.014 39.747C162.064 39.377 162.051 39.0687 161.977 38.822C161.953 38.6493 161.94 38.489 161.94 38.341C161.94 38.193 161.94 38.045 161.94 37.897C161.916 37.749 161.903 37.601 161.903 37.453C161.903 37.305 161.903 37.157 161.903 37.009V36.713C161.903 36.6637 161.891 36.602 161.866 36.528C161.866 36.4787 161.866 36.417 161.866 36.343C161.866 36.121 161.866 35.899 161.866 35.677C161.866 35.455 161.842 35.233 161.792 35.011C161.768 34.8383 161.755 34.6657 161.755 34.493C161.78 34.345 161.792 34.197 161.792 34.049V33.013C161.792 32.8897 161.792 32.754 161.792 32.606C161.792 32.4827 161.805 32.3593 161.829 32.236C161.854 32.1127 161.854 31.9893 161.829 31.866C161.829 31.7673 161.829 31.6687 161.829 31.57C161.829 31.4467 161.817 31.3357 161.792 31.237C161.792 31.1383 161.805 31.0397 161.829 30.941C161.78 30.3983 161.706 29.8927 161.607 29.424L161.496 29.239C161.398 29.1157 161.299 28.98 161.2 28.832C161.126 28.684 161.028 28.5483 160.904 28.425C160.534 28.0057 160.201 27.5617 159.905 27.093C159.831 27.019 159.77 26.945 159.72 26.871C159.671 26.7723 159.622 26.6737 159.572 26.575C159.523 26.4763 159.474 26.39 159.424 26.316C159.375 26.2173 159.326 26.1187 159.276 26.02C159.178 25.8227 159.079 25.6377 158.98 25.465C158.882 25.2923 158.795 25.1197 158.721 24.947C158.623 24.725 158.536 24.503 158.462 24.281C158.413 24.059 158.327 23.8493 158.203 23.652C158.179 23.6273 158.166 23.615 158.166 23.615C158.166 23.5903 158.166 23.578 158.166 23.578C158.018 23.06 157.833 22.5913 157.611 22.172C157.587 22.0487 157.55 21.9377 157.5 21.839C157.476 21.7157 157.451 21.5923 157.426 21.469C157.402 21.3457 157.365 21.2223 157.315 21.099C157.291 20.951 157.254 20.8153 157.204 20.692C157.13 20.4453 157.069 20.1987 157.019 19.952C156.97 19.7053 156.921 19.4587 156.871 19.212C156.847 19.1627 156.834 19.0763 156.834 18.953C156.834 18.7063 156.822 18.472 156.797 18.25C156.773 18.028 156.736 17.7937 156.686 17.547C156.612 17.177 156.575 16.7947 156.575 16.4C156.575 16.2767 156.575 16.1533 156.575 16.03C156.575 15.9067 156.563 15.7957 156.538 15.697C156.514 15.623 156.501 15.549 156.501 15.475C156.501 15.3763 156.501 15.2777 156.501 15.179V13.995C156.501 13.8963 156.501 13.81 156.501 13.736C156.501 13.6373 156.514 13.5387 156.538 13.44C156.538 13.3907 156.538 13.3537 156.538 13.329C156.563 13.3043 156.575 13.2797 156.575 13.255C156.551 12.9837 156.563 12.7123 156.612 12.441C156.662 12.1697 156.699 11.8983 156.723 11.627C156.723 11.479 156.736 11.368 156.76 11.294C156.81 11.0473 156.834 10.8007 156.834 10.554C156.859 10.3073 156.871 10.0607 156.871 9.814V9.703C156.921 9.481 156.933 9.259 156.908 9.037C156.884 8.815 156.871 8.60533 156.871 8.408C156.847 8.21067 156.822 8.01333 156.797 7.816C156.773 7.61867 156.773 7.42133 156.797 7.224C156.773 7.02666 156.76 6.817 156.76 6.595C156.76 6.373 156.773 6.151 156.797 5.929C156.797 5.75633 156.797 5.58367 156.797 5.411C156.822 5.21367 156.847 5.02867 156.871 4.856C156.871 4.65867 156.871 4.47367 156.871 4.301C156.896 4.10367 156.921 3.90633 156.945 3.709C156.97 3.36367 157.044 3.01833 157.167 2.673C157.241 2.40167 157.414 2.14267 157.685 1.896C157.858 1.72333 158.043 1.58767 158.24 1.489C158.462 1.39033 158.697 1.31633 158.943 1.267H159.239C159.486 1.267 159.696 1.341 159.868 1.489C159.967 1.563 160.053 1.637 160.127 1.711C160.226 1.785 160.325 1.84667 160.423 1.896C160.497 1.97 160.547 2.03167 160.571 2.081C160.621 2.155 160.67 2.229 160.719 2.303C160.769 2.35233 160.806 2.40167 160.83 2.451C161.126 2.72233 161.213 3.03067 161.089 3.376C161.015 3.62267 160.978 3.857 160.978 4.079C160.954 4.17767 160.941 4.27633 160.941 4.375C160.941 4.47367 160.941 4.57233 160.941 4.671C160.941 4.86833 160.929 5.06567 160.904 5.263C160.88 5.43567 160.843 5.62067 160.793 5.818C160.769 5.892 160.756 6.003 160.756 6.151C160.756 6.32367 160.744 6.49633 160.719 6.669C160.719 6.84167 160.707 7.02666 160.682 7.224C160.633 7.446 160.645 7.65567 160.719 7.853C160.769 7.95167 160.744 8.038 160.645 8.112C160.645 8.112 160.633 8.12433 160.608 8.149C160.608 8.17367 160.608 8.19833 160.608 8.223C160.584 8.39567 160.571 8.56833 160.571 8.741C160.571 8.889 160.571 9.04933 160.571 9.222C160.571 9.444 160.559 9.666 160.534 9.888C160.534 10.0853 160.522 10.2827 160.497 10.48C160.497 10.5787 160.497 10.665 160.497 10.739C160.497 10.813 160.485 10.8993 160.46 10.998C160.46 11.3187 160.448 11.6393 160.423 11.96C160.399 12.256 160.362 12.5643 160.312 12.885C160.238 13.2797 160.226 13.736 160.275 14.254V15.327C160.275 15.623 160.312 15.919 160.386 16.215C160.436 16.437 160.473 16.659 160.497 16.881C160.547 17.0783 160.596 17.2757 160.645 17.473C160.719 17.843 160.855 18.25 161.052 18.694L161.311 19.175C161.435 19.4957 161.583 19.804 161.755 20.1C161.953 20.396 162.15 20.6797 162.347 20.951C162.495 21.173 162.656 21.3703 162.828 21.543L163.494 22.209C163.667 22.283 163.815 22.2953 163.938 22.246L164.123 22.172C164.247 22.1227 164.37 22.0733 164.493 22.024C164.617 21.95 164.728 21.8883 164.826 21.839L165.048 21.728C165.295 21.5553 165.468 21.3703 165.566 21.173C165.64 21.0003 165.727 20.8277 165.825 20.655C165.924 20.433 166.023 20.211 166.121 19.989C166.245 19.7423 166.38 19.5203 166.528 19.323C166.627 19.175 166.713 19.0393 166.787 18.916C166.886 18.768 166.972 18.62 167.046 18.472C167.12 18.3487 167.194 18.213 167.268 18.065C167.342 17.917 167.404 17.7567 167.453 17.584C167.527 17.362 167.601 17.14 167.675 16.918C167.749 16.6713 167.811 16.4247 167.86 16.178C167.934 15.8327 167.971 15.4997 167.971 15.179V14.365C167.947 14.0197 167.922 13.662 167.897 13.292C167.897 12.8973 167.885 12.4657 167.86 11.997C167.86 11.849 167.848 11.664 167.823 11.442C167.799 11.1953 167.786 10.9487 167.786 10.702C167.786 10.48 167.774 10.258 167.749 10.036C167.749 9.814 167.737 9.592 167.712 9.37C167.688 8.95067 167.651 8.54367 167.601 8.149C167.577 7.75433 167.54 7.35967 167.49 6.965C167.49 6.91567 167.478 6.87867 167.453 6.854C167.453 6.80467 167.453 6.76767 167.453 6.743C167.453 6.49633 167.441 6.262 167.416 6.04C167.392 5.818 167.379 5.58367 167.379 5.337L167.231 4.523C167.207 4.35033 167.17 4.19 167.12 4.042C167.096 3.894 167.059 3.73367 167.009 3.561C166.985 3.16633 167.071 2.75933 167.268 2.34C167.466 1.92067 167.762 1.62467 168.156 1.452C168.329 1.378 168.502 1.31633 168.674 1.267C168.847 1.193 169.02 1.156 169.192 1.156C169.587 1.156 169.932 1.23 170.228 1.378C170.549 1.526 170.808 1.77266 171.005 2.118C171.055 2.192 171.104 2.32767 171.153 2.525C171.203 2.64833 171.227 2.784 171.227 2.932C171.227 3.05533 171.227 3.17867 171.227 3.302C171.252 3.54866 171.264 3.82 171.264 4.116C171.289 4.38733 171.314 4.65867 171.338 4.93V5.3C171.338 5.448 171.338 5.596 171.338 5.744C171.363 5.892 171.388 6.05233 171.412 6.225C171.437 6.32367 171.449 6.43467 171.449 6.558C171.449 6.68133 171.449 6.80466 171.449 6.928C171.449 7.002 171.449 7.076 171.449 7.15C171.449 7.224 171.462 7.298 171.486 7.372C171.511 7.47067 171.523 7.56933 171.523 7.668C171.523 7.76667 171.523 7.86533 171.523 7.964C171.523 8.13667 171.523 8.32167 171.523 8.519C171.548 8.69167 171.573 8.87667 171.597 9.074C171.622 9.222 171.634 9.37 171.634 9.518C171.634 9.666 171.647 9.814 171.671 9.962C171.671 10.11 171.671 10.258 171.671 10.406C171.696 10.554 171.708 10.702 171.708 10.85C171.708 10.998 171.708 11.1583 171.708 11.331C171.733 11.479 171.758 11.627 171.782 11.775C171.807 11.9723 171.819 12.182 171.819 12.404C171.819 12.6013 171.819 12.7987 171.819 12.996C171.844 13.3167 171.844 13.6497 171.819 13.995C171.819 14.3157 171.807 14.6487 171.782 14.994C171.782 15.1667 171.77 15.3393 171.745 15.512C171.721 15.66 171.708 15.8203 171.708 15.993C171.708 16.0177 171.696 16.0423 171.671 16.067C171.671 16.0917 171.671 16.1287 171.671 16.178C171.622 16.3507 171.573 16.548 171.523 16.77C171.474 16.9673 171.425 17.1647 171.375 17.362C171.351 17.4113 171.326 17.473 171.301 17.547C171.301 17.621 171.277 17.6827 171.227 17.732C171.153 17.9047 171.092 18.065 171.042 18.213C170.993 18.361 170.944 18.5213 170.894 18.694C170.845 18.7927 170.82 18.8667 170.82 18.916C170.796 19.0393 170.759 19.1627 170.709 19.286C170.66 19.3847 170.611 19.4957 170.561 19.619C170.463 19.7917 170.376 19.9643 170.302 20.137C170.228 20.285 170.142 20.433 170.043 20.581C169.969 20.6797 169.895 20.7907 169.821 20.914C169.747 21.0127 169.673 21.1113 169.599 21.21L169.34 21.58C169.242 21.7527 169.143 21.9377 169.044 22.135C168.946 22.3077 168.835 22.4927 168.711 22.69C168.613 22.838 168.489 23.0107 168.341 23.208C168.169 23.4053 168.021 23.652 167.897 23.948C167.873 23.9727 167.86 23.9973 167.86 24.022C167.86 24.0467 167.848 24.0713 167.823 24.096C167.651 24.318 167.49 24.5523 167.342 24.799C167.219 25.0457 167.083 25.2923 166.935 25.539C166.763 25.835 166.578 26.1187 166.38 26.39C166.208 26.6613 165.998 26.908 165.751 27.13C165.579 27.3027 165.418 27.5 165.27 27.722C165.196 27.8453 165.098 27.944 164.974 28.018C164.851 28.1413 164.728 28.277 164.604 28.425C164.481 28.5977 164.358 28.758 164.234 28.906C164.111 29.1527 164.037 29.3747 164.012 29.572C163.988 29.6707 163.963 29.7817 163.938 29.905C163.938 30.053 163.938 30.1887 163.938 30.312C163.914 30.5587 163.901 30.8053 163.901 31.052C163.901 31.3233 163.901 31.5947 163.901 31.866V33.05C163.901 33.198 163.889 33.346 163.864 33.494C163.864 33.642 163.864 33.8023 163.864 33.975C163.84 34.1477 163.827 34.3327 163.827 34.53C163.827 34.7273 163.827 34.9247 163.827 35.122C163.852 35.27 163.852 35.4057 163.827 35.529C163.827 35.677 163.84 35.825 163.864 35.973C163.864 36.1457 163.852 36.306 163.827 36.454C163.827 36.6267 163.84 36.7993 163.864 36.972C163.889 37.194 163.889 37.3913 163.864 37.564C163.84 37.5887 163.827 37.6133 163.827 37.638C163.852 37.6873 163.864 37.7243 163.864 37.749C163.889 38.0203 163.889 38.304 163.864 38.6C163.84 38.6247 163.827 38.637 163.827 38.637C163.852 38.6617 163.864 38.674 163.864 38.674C163.864 38.9453 163.864 39.2167 163.864 39.488C163.889 39.784 163.901 40.08 163.901 40.376C163.901 40.7707 163.889 41.1653 163.864 41.56C163.864 41.9547 163.864 42.3617 163.864 42.781C163.889 43.1017 163.877 43.4223 163.827 43.743C163.803 44.0637 163.79 44.3843 163.79 44.705V45.112C163.815 45.26 163.803 45.3957 163.753 45.519C163.704 45.667 163.655 45.8027 163.605 45.926C163.556 46.074 163.396 46.1727 163.124 46.222ZM181.426 32.31C181.228 32.2607 181.093 32.1497 181.019 31.977C180.969 31.7797 180.92 31.5947 180.871 31.422C180.821 31.2493 180.797 31.0767 180.797 30.904V30.682C180.821 30.4353 180.809 30.1887 180.76 29.942C180.71 29.72 180.673 29.4857 180.649 29.239C180.649 29.1403 180.636 29.0663 180.612 29.017L180.205 28.24C180.155 28.1907 180.081 28.092 179.983 27.944C179.909 27.7713 179.822 27.6233 179.724 27.5C179.65 27.352 179.563 27.204 179.465 27.056C179.415 26.9573 179.354 26.871 179.28 26.797C179.206 26.723 179.132 26.6367 179.058 26.538C179.008 26.464 178.959 26.3777 178.91 26.279C178.86 26.1803 178.786 26.094 178.688 26.02L178.577 25.835C178.478 25.6623 178.379 25.502 178.281 25.354C178.207 25.206 178.133 25.058 178.059 24.91L177.948 24.688C177.849 24.3673 177.738 24.059 177.615 23.763C177.516 23.467 177.405 23.1587 177.282 22.838C177.208 22.6407 177.134 22.4557 177.06 22.283C177.01 22.1103 176.936 21.9377 176.838 21.765C176.665 21.395 176.554 21.0003 176.505 20.581C176.48 20.285 176.505 19.9767 176.579 19.656C176.653 19.4587 176.764 19.286 176.912 19.138C177.38 18.7433 177.898 18.5953 178.466 18.694L178.873 18.768C179.169 18.8913 179.378 19.064 179.502 19.286C179.6 19.4587 179.687 19.6437 179.761 19.841C179.835 20.0137 179.884 20.211 179.909 20.433C179.958 20.581 180.007 20.7413 180.057 20.914C180.106 21.062 180.168 21.2223 180.242 21.395C180.365 21.6663 180.501 21.9377 180.649 22.209C180.772 22.431 180.92 22.616 181.093 22.764C181.216 22.8627 181.352 22.9737 181.5 23.097C181.648 23.2203 181.783 23.3437 181.907 23.467L182.684 24.244C182.733 24.2687 182.77 24.3057 182.795 24.355C182.844 24.4043 182.881 24.4537 182.906 24.503C182.98 24.5523 183.066 24.5647 183.165 24.54C183.411 24.466 183.658 24.3303 183.905 24.133C184.299 23.8123 184.62 23.4793 184.867 23.134C185.113 22.7887 185.274 22.3817 185.348 21.913C185.397 21.4937 185.274 21.1237 184.978 20.803C184.928 20.7043 184.854 20.6427 184.756 20.618C184.583 20.5193 184.41 20.433 184.238 20.359C184.09 20.2603 183.917 20.1863 183.72 20.137C183.522 20.063 183.35 19.952 183.202 19.804C183.103 19.6807 182.955 19.6067 182.758 19.582C182.585 19.5327 182.425 19.471 182.277 19.397C182.129 19.323 181.993 19.2367 181.87 19.138C181.722 19.0147 181.574 18.916 181.426 18.842C181.278 18.7433 181.13 18.6447 180.982 18.546C180.834 18.472 180.686 18.3857 180.538 18.287C180.414 18.1883 180.291 18.0897 180.168 17.991C179.995 17.8677 179.835 17.7443 179.687 17.621C179.539 17.473 179.391 17.3373 179.243 17.214C179.144 17.1647 179.082 17.1153 179.058 17.066C178.934 16.918 178.799 16.7823 178.651 16.659C178.527 16.511 178.404 16.3507 178.281 16.178C178.207 16.0793 178.133 15.993 178.059 15.919C177.985 15.8203 177.898 15.7217 177.8 15.623C177.701 15.5243 177.602 15.4257 177.504 15.327C177.43 15.2037 177.368 15.0803 177.319 14.957L176.986 14.402C176.862 14.1553 176.751 13.9087 176.653 13.662C176.554 13.4153 176.443 13.1687 176.32 12.922C176.221 12.6507 176.122 12.3793 176.024 12.108C175.95 11.8367 175.888 11.5653 175.839 11.294C175.814 11.0967 175.777 10.9117 175.728 10.739C175.703 10.5663 175.678 10.3937 175.654 10.221C175.629 9.94967 175.617 9.69067 175.617 9.444C175.617 9.17267 175.604 8.90133 175.58 8.63C175.58 8.30933 175.604 7.98867 175.654 7.668C175.703 7.34733 175.765 7.02667 175.839 6.706C175.888 6.50866 175.937 6.31133 175.987 6.114C176.036 5.91667 176.085 5.73167 176.135 5.559C176.184 5.43566 176.233 5.32466 176.283 5.226C176.332 5.10266 176.369 4.99167 176.394 4.893C176.591 4.375 176.875 3.857 177.245 3.339C177.368 3.16633 177.491 3.006 177.615 2.858C177.763 2.68533 177.911 2.525 178.059 2.377C178.182 2.25367 178.305 2.118 178.429 1.97C178.552 1.822 178.663 1.674 178.762 1.526C179.082 1.10667 179.452 0.798332 179.872 0.600998C180.291 0.378998 180.772 0.292665 181.315 0.341999C181.981 0.440666 182.61 0.699665 183.202 1.119C183.399 1.267 183.596 1.42733 183.794 1.6C184.016 1.748 184.225 1.90833 184.423 2.081C184.916 2.47567 185.323 2.91967 185.644 3.413C185.792 3.635 185.94 3.857 186.088 4.079C186.236 4.301 186.371 4.523 186.495 4.745C186.569 4.84367 186.63 4.94233 186.68 5.041C186.729 5.13966 186.766 5.25066 186.791 5.374C186.84 5.596 186.852 5.818 186.828 6.04C186.828 6.23733 186.803 6.447 186.754 6.669L186.643 6.965C186.569 7.08833 186.495 7.224 186.421 7.372C186.347 7.52 186.273 7.65566 186.199 7.779C186.149 7.87766 186.088 7.97633 186.014 8.075C185.964 8.149 185.915 8.223 185.866 8.297C185.668 8.61766 185.57 8.93833 185.57 9.259V12.848C185.57 13.3413 185.496 13.81 185.348 14.254C185.348 14.2787 185.335 14.3033 185.311 14.328C185.311 14.328 185.311 14.3527 185.311 14.402C185.311 14.5253 185.348 14.624 185.422 14.698L185.755 14.92C186.026 15.0927 186.273 15.29 186.495 15.512C186.741 15.7093 186.988 15.9067 187.235 16.104C187.383 16.2273 187.518 16.3753 187.642 16.548C187.765 16.696 187.876 16.844 187.975 16.992C188.073 17.1153 188.16 17.251 188.234 17.399C188.308 17.5223 188.382 17.6457 188.456 17.769C188.579 17.9417 188.665 18.139 188.715 18.361C188.789 18.583 188.85 18.805 188.9 19.027V19.175C188.875 19.3477 188.875 19.5327 188.9 19.73C188.924 19.9273 188.949 20.1247 188.974 20.322C188.974 20.3713 188.974 20.433 188.974 20.507C188.998 20.5563 188.998 20.618 188.974 20.692L188.863 21.469C188.813 21.5923 188.838 21.6663 188.937 21.691C189.011 21.691 189.048 21.7157 189.048 21.765C189.122 21.7897 189.134 21.8513 189.085 21.95C189.035 22.0487 188.974 22.0733 188.9 22.024C188.9 21.9993 188.887 21.987 188.863 21.987C188.789 21.9623 188.739 21.9747 188.715 22.024C188.69 22.098 188.665 22.172 188.641 22.246C188.641 22.32 188.641 22.4063 188.641 22.505C188.542 22.653 188.517 22.7763 188.567 22.875C188.567 22.949 188.554 22.9983 188.53 23.023C188.456 23.097 188.431 23.1957 188.456 23.319C188.456 23.3683 188.419 23.4177 188.345 23.467C188.197 23.541 188.086 23.6767 188.012 23.874C187.888 24.1947 187.74 24.503 187.568 24.799C187.42 25.0703 187.247 25.3417 187.05 25.613C186.852 25.8843 186.643 26.1557 186.421 26.427C186.223 26.6737 185.989 26.908 185.718 27.13C185.496 27.3027 185.261 27.463 185.015 27.611C184.768 27.7837 184.509 27.9317 184.238 28.055C184.139 28.0797 184.04 28.129 183.942 28.203L183.498 28.425C183.3 28.4497 183.103 28.5483 182.906 28.721L182.684 28.869C182.61 28.943 182.548 29.0663 182.499 29.239V30.238C182.499 30.3367 182.499 30.4353 182.499 30.534C182.499 30.6327 182.486 30.7313 182.462 30.83C182.437 30.8793 182.425 30.941 182.425 31.015C182.425 31.089 182.412 31.1507 182.388 31.2C182.363 31.2987 182.338 31.3973 182.314 31.496C182.289 31.6193 182.252 31.7427 182.203 31.866C182.079 32.2113 181.82 32.3593 181.426 32.31ZM183.683 13.736C183.781 13.736 183.843 13.699 183.868 13.625C183.892 13.5017 183.892 13.3783 183.868 13.255C183.868 13.1317 183.855 13.0207 183.831 12.922C183.806 12.7987 183.794 12.6753 183.794 12.552C183.794 12.404 183.781 12.2683 183.757 12.145C183.757 11.997 183.744 11.849 183.72 11.701C183.695 11.553 183.695 11.405 183.72 11.257C183.744 11.2323 183.744 11.22 183.72 11.22C183.72 11.1953 183.72 11.183 183.72 11.183C183.695 11.0103 183.683 10.85 183.683 10.702C183.683 10.554 183.683 10.406 183.683 10.258C183.683 9.76467 183.584 9.28367 183.387 8.815C183.214 8.42033 183.029 8.038 182.832 7.668C182.659 7.298 182.474 6.928 182.277 6.558C182.203 6.41 182.104 6.27433 181.981 6.151C181.882 6.003 181.771 5.86733 181.648 5.744C181.549 5.596 181.413 5.57133 181.241 5.67C181.093 5.69467 180.932 5.79333 180.76 5.966C180.612 6.13867 180.476 6.32367 180.353 6.521C180.229 6.71833 180.118 6.928 180.02 7.15C179.995 7.224 179.97 7.298 179.946 7.372C179.921 7.446 179.896 7.50767 179.872 7.557C179.847 7.72967 179.822 7.91467 179.798 8.112C179.798 8.28467 179.798 8.46967 179.798 8.667V9.148C179.798 9.49333 179.896 9.86333 180.094 10.258C180.266 10.628 180.513 10.998 180.834 11.368C180.908 11.4667 180.982 11.5653 181.056 11.664C181.13 11.738 181.204 11.8367 181.278 11.96C181.5 12.256 181.746 12.515 182.018 12.737C182.314 12.959 182.622 13.1687 182.943 13.366L183.498 13.662C183.547 13.6867 183.584 13.699 183.609 13.699C183.633 13.699 183.658 13.7113 183.683 13.736ZM203.717 27.463C203.397 27.537 203.064 27.5123 202.718 27.389C202.62 27.3643 202.533 27.3273 202.459 27.278C202.41 27.2287 202.348 27.1793 202.274 27.13C202.102 27.0067 201.966 26.8217 201.867 26.575L201.719 26.094C201.719 26.0447 201.707 26.0077 201.682 25.983C201.682 25.9337 201.682 25.8967 201.682 25.872C201.682 25.5267 201.658 25.1937 201.608 24.873C201.559 24.5277 201.51 24.1947 201.46 23.874C201.411 23.6273 201.362 23.3807 201.312 23.134C201.288 22.8873 201.251 22.6407 201.201 22.394C201.201 22.3447 201.189 22.3077 201.164 22.283C201.164 22.2583 201.164 22.2337 201.164 22.209C201.115 21.913 201.066 21.617 201.016 21.321C200.967 21.025 200.918 20.7413 200.868 20.47C200.844 20.322 200.819 20.174 200.794 20.026C200.794 19.878 200.77 19.73 200.72 19.582L200.498 17.954C200.474 17.732 200.437 17.51 200.387 17.288C200.363 17.0413 200.326 16.7947 200.276 16.548C200.252 16.3013 200.215 16.067 200.165 15.845C200.116 15.5983 200.067 15.364 200.017 15.142L199.462 12.7C199.413 12.4287 199.364 12.1573 199.314 11.886C199.265 11.6147 199.203 11.3557 199.129 11.109C199.055 10.887 198.994 10.665 198.944 10.443C198.895 10.1963 198.821 9.962 198.722 9.74L198.685 9.592C198.611 9.27133 198.513 8.963 198.389 8.667C198.291 8.371 198.18 8.075 198.056 7.779C198.056 7.75433 198.044 7.742 198.019 7.742C198.019 7.71733 198.019 7.705 198.019 7.705C197.97 7.557 197.884 7.50767 197.76 7.557C197.736 7.58167 197.699 7.594 197.649 7.594C197.551 7.61867 197.452 7.65567 197.353 7.705C197.279 7.75433 197.193 7.80367 197.094 7.853C196.848 7.927 196.638 8.038 196.465 8.186L195.466 8.889C195.318 8.963 195.183 9.06167 195.059 9.185C194.961 9.30833 194.862 9.43167 194.763 9.555C194.689 9.65367 194.652 9.76467 194.652 9.888L194.541 10.554C194.517 10.8007 194.492 11.0597 194.467 11.331C194.443 11.6023 194.418 11.8737 194.393 12.145C194.369 12.3917 194.332 12.626 194.282 12.848C194.258 13.0453 194.245 13.2673 194.245 13.514C194.245 13.7113 194.208 13.921 194.134 14.143C194.06 14.4143 193.875 14.587 193.579 14.661C193.357 14.6857 193.172 14.6117 193.024 14.439C192.901 14.3157 192.815 14.1307 192.765 13.884C192.741 13.7113 192.716 13.551 192.691 13.403C192.667 13.255 192.654 13.0947 192.654 12.922V11.812C192.654 11.59 192.642 11.3803 192.617 11.183C192.617 10.9857 192.63 10.8007 192.654 10.628C192.654 10.2087 192.556 9.80167 192.358 9.407L191.803 8.26C191.705 8.06267 191.618 7.80367 191.544 7.483C191.47 7.13767 191.433 6.854 191.433 6.632C191.483 6.06467 191.692 5.596 192.062 5.226C192.383 4.90533 192.753 4.69567 193.172 4.597C193.32 4.54767 193.518 4.49833 193.764 4.449L195.725 4.116C195.923 4.09133 196.108 4.06667 196.28 4.042C196.478 3.99267 196.663 3.95567 196.835 3.931C197.205 3.88166 197.575 3.83233 197.945 3.783C198.34 3.73367 198.735 3.69667 199.129 3.672C199.351 3.64733 199.573 3.62267 199.795 3.598C200.017 3.57333 200.239 3.54867 200.461 3.524H200.609C200.831 3.49933 201.041 3.487 201.238 3.487C201.46 3.46233 201.682 3.43767 201.904 3.413C202.028 3.38833 202.151 3.376 202.274 3.376C202.398 3.376 202.509 3.36367 202.607 3.339C202.632 3.31433 202.681 3.302 202.755 3.302L204.124 3.191C204.396 3.16633 204.655 3.14166 204.901 3.117C205.173 3.09233 205.444 3.06767 205.715 3.043C205.937 3.01833 206.159 2.99366 206.381 2.969C206.603 2.91967 206.825 2.84567 207.047 2.747C207.269 2.64833 207.491 2.62367 207.713 2.673C207.96 2.69767 208.182 2.75933 208.379 2.858C208.453 2.88267 208.515 2.932 208.564 3.006C208.638 3.05533 208.7 3.10467 208.749 3.154C208.873 3.27733 208.971 3.42533 209.045 3.598C209.119 3.746 209.193 3.894 209.267 4.042C209.341 4.19 209.341 4.338 209.267 4.486C209.218 4.58467 209.181 4.69567 209.156 4.819C209.156 4.91767 209.144 5.02867 209.119 5.152C209.119 5.27533 209.082 5.374 209.008 5.448C208.959 5.47267 208.91 5.50967 208.86 5.559C208.811 5.60833 208.762 5.65767 208.712 5.707C208.638 5.73167 208.564 5.80567 208.49 5.929C208.342 6.12633 208.133 6.225 207.861 6.225C207.763 6.225 207.664 6.23733 207.565 6.262C207.491 6.28667 207.405 6.31133 207.306 6.336C207.084 6.38533 206.936 6.45933 206.862 6.558C206.739 6.68133 206.603 6.743 206.455 6.743C206.283 6.79233 206.147 6.743 206.048 6.595C206.024 6.521 205.962 6.484 205.863 6.484C205.765 6.50867 205.654 6.521 205.53 6.521C205.432 6.521 205.333 6.521 205.234 6.521C205.136 6.54567 205.025 6.558 204.901 6.558C204.803 6.558 204.692 6.57033 204.568 6.595C204.47 6.595 204.383 6.60733 204.309 6.632C204.235 6.632 204.149 6.632 204.05 6.632C203.804 6.65667 203.545 6.68133 203.273 6.706C203.027 6.73067 202.768 6.75533 202.496 6.78C202.348 6.78 202.237 6.79233 202.163 6.817C202.065 6.86633 202.015 6.94033 202.015 7.039C201.991 7.13767 201.991 7.261 202.015 7.409L202.237 8.556C202.287 8.778 202.336 9.01233 202.385 9.259C202.435 9.481 202.484 9.71533 202.533 9.962L202.644 10.776C202.644 10.8747 202.644 10.9733 202.644 11.072C202.669 11.146 202.694 11.2323 202.718 11.331C202.768 11.627 202.817 11.923 202.866 12.219C202.94 12.515 202.99 12.811 203.014 13.107L203.051 13.255C203.15 13.5757 203.224 13.8963 203.273 14.217C203.323 14.5377 203.372 14.8707 203.421 15.216C203.471 15.438 203.52 15.6723 203.569 15.919C203.619 16.141 203.656 16.363 203.68 16.585C203.705 16.7577 203.73 16.9303 203.754 17.103C203.779 17.251 203.804 17.4113 203.828 17.584V17.769C203.853 17.9663 203.878 18.1637 203.902 18.361C203.952 18.5337 203.989 18.7187 204.013 18.916L204.124 20.026C204.149 20.1987 204.174 20.3713 204.198 20.544C204.223 20.7167 204.248 20.9017 204.272 21.099C204.272 21.1483 204.272 21.21 204.272 21.284C204.297 21.3333 204.309 21.3827 204.309 21.432C204.309 21.5553 204.322 21.691 204.346 21.839C204.371 21.9623 204.396 22.098 204.42 22.246C204.47 22.5173 204.519 22.801 204.568 23.097C204.618 23.3683 204.667 23.652 204.716 23.948C204.741 24.1207 204.778 24.2933 204.827 24.466C204.877 24.614 204.914 24.7743 204.938 24.947C204.963 25.0703 205.037 25.1937 205.16 25.317C205.259 25.391 205.284 25.4773 205.234 25.576C205.16 25.6747 205.111 25.7857 205.086 25.909C205.086 26.0323 205.074 26.1557 205.049 26.279C205.049 26.3777 205.037 26.4517 205.012 26.501C205.012 26.6243 204.963 26.7107 204.864 26.76C204.766 26.8093 204.667 26.908 204.568 27.056C204.445 27.1793 204.346 27.2657 204.272 27.315C204.198 27.389 204.1 27.426 203.976 27.426C203.927 27.4013 203.841 27.4137 203.717 27.463ZM223.413 28.573C223.068 28.647 222.747 28.5977 222.451 28.425C222.278 28.3263 222.106 28.24 221.933 28.166C221.76 28.1167 221.575 28.0797 221.378 28.055C221.131 28.0057 220.885 27.944 220.638 27.87C220.416 27.8207 220.182 27.7467 219.935 27.648C219.836 27.5987 219.738 27.5493 219.639 27.5C219.565 27.4507 219.479 27.389 219.38 27.315C219.306 27.2163 219.207 27.1547 219.084 27.13C218.911 27.056 218.726 26.9327 218.529 26.76C218.48 26.7107 218.443 26.6613 218.418 26.612C218.319 26.5133 218.208 26.427 218.085 26.353C217.986 26.279 217.875 26.205 217.752 26.131C217.431 25.9337 217.074 25.6993 216.679 25.428C216.605 25.3787 216.543 25.317 216.494 25.243C216.395 25.1197 216.272 25.0087 216.124 24.91C216.001 24.8113 215.877 24.7127 215.754 24.614L214.755 23.948C214.73 23.9233 214.693 23.911 214.644 23.911C214.595 23.8863 214.545 23.8617 214.496 23.837C214.175 23.689 213.916 23.4793 213.719 23.208C213.522 22.9613 213.337 22.7023 213.164 22.431C212.991 22.1597 212.831 21.9007 212.683 21.654C212.634 21.6047 212.584 21.5307 212.535 21.432C212.436 21.3087 212.35 21.173 212.276 21.025C212.202 20.877 212.14 20.7413 212.091 20.618C212.042 20.4947 211.992 20.359 211.943 20.211L211.832 19.656C211.758 19.4587 211.709 19.2613 211.684 19.064C211.659 18.842 211.622 18.6323 211.573 18.435C211.548 18.287 211.511 18.139 211.462 17.991C211.413 17.8183 211.351 17.658 211.277 17.51C211.228 17.436 211.191 17.362 211.166 17.288C211.141 17.1893 211.104 17.0907 211.055 16.992C211.03 16.9427 211.018 16.8563 211.018 16.733C210.993 16.5357 210.981 16.3383 210.981 16.141C211.006 15.9437 211.055 15.7587 211.129 15.586L211.24 15.179C211.289 15.0557 211.326 14.9323 211.351 14.809C211.376 14.6857 211.4 14.5747 211.425 14.476C211.425 14.3033 211.4 14.18 211.351 14.106C211.326 14.0567 211.302 14.0073 211.277 13.958C211.252 13.884 211.228 13.8223 211.203 13.773C211.08 13.5263 211.067 13.3043 211.166 13.107L211.277 12.811C211.351 12.6877 211.388 12.5643 211.388 12.441C211.388 12.0463 211.511 11.6393 211.758 11.22C211.931 10.924 212.103 10.6897 212.276 10.517C212.424 10.369 212.535 10.221 212.609 10.073C212.708 9.87567 212.843 9.69067 213.016 9.518C213.238 9.296 213.374 9.09867 213.423 8.926C213.472 8.80267 213.534 8.704 213.608 8.63L214.2 8.038C214.373 7.816 214.373 7.60633 214.2 7.409C214.126 7.31033 214.064 7.21167 214.015 7.113C213.99 6.98967 213.953 6.87867 213.904 6.78C213.83 6.36067 213.916 5.99067 214.163 5.67C214.262 5.54667 214.36 5.43567 214.459 5.337C214.582 5.23833 214.718 5.16433 214.866 5.115C214.94 5.09033 215.002 5.06567 215.051 5.041C215.125 5.01633 215.199 4.99167 215.273 4.967C215.396 4.94233 215.52 4.90533 215.643 4.856C215.791 4.80667 215.927 4.75733 216.05 4.708C216.149 4.65867 216.235 4.62167 216.309 4.597C216.383 4.57233 216.469 4.56 216.568 4.56C216.667 4.53533 216.753 4.523 216.827 4.523C216.901 4.49833 216.975 4.486 217.049 4.486C217.246 4.46133 217.444 4.36267 217.641 4.19C217.986 3.91867 218.332 3.64733 218.677 3.376C219.047 3.08 219.392 2.784 219.713 2.488C219.91 2.31533 220.12 2.155 220.342 2.007C220.589 1.859 220.835 1.72333 221.082 1.6C221.255 1.526 221.44 1.46433 221.637 1.415C221.76 1.36567 221.896 1.32867 222.044 1.304C222.192 1.27933 222.328 1.25466 222.451 1.23L223.228 1.119C223.573 1.09433 223.894 1.05733 224.19 1.008C224.511 0.958665 224.831 0.909332 225.152 0.859999C225.201 0.859999 225.251 0.859999 225.3 0.859999C225.349 0.835333 225.386 0.822999 225.411 0.822999H225.892C226.065 0.822999 226.225 0.835333 226.373 0.859999C226.521 0.859999 226.669 0.884665 226.817 0.933998C227.014 1.008 227.187 1.10667 227.335 1.23C227.483 1.32867 227.606 1.47667 227.705 1.674C227.878 1.92067 227.976 2.155 228.001 2.377C228.026 2.525 228.038 2.673 228.038 2.821C228.063 2.969 228.075 3.117 228.075 3.265V3.598C228.075 3.672 228.112 3.73367 228.186 3.783L228.408 3.894C228.753 4.01733 229.086 4.17767 229.407 4.375C229.728 4.57233 230.036 4.782 230.332 5.004C230.529 5.12733 230.677 5.25066 230.776 5.374C230.949 5.54667 231.109 5.71933 231.257 5.892C231.405 6.04 231.553 6.20033 231.701 6.373C231.8 6.49633 231.898 6.61966 231.997 6.743C232.096 6.84167 232.194 6.95267 232.293 7.076C232.367 7.15 232.416 7.21167 232.441 7.261C232.49 7.409 232.577 7.557 232.7 7.705C232.848 7.95167 232.971 8.19833 233.07 8.445C233.144 8.64233 233.218 8.852 233.292 9.074C233.366 9.27133 233.428 9.481 233.477 9.703C233.477 9.777 233.502 9.888 233.551 10.036C233.576 10.11 233.588 10.184 233.588 10.258C233.613 10.3073 233.625 10.3567 233.625 10.406C233.65 10.554 233.674 10.702 233.699 10.85C233.748 10.998 233.785 11.146 233.81 11.294C233.835 11.4173 233.859 11.553 233.884 11.701C233.909 11.8243 233.933 11.96 233.958 12.108C233.983 12.33 234.02 12.5643 234.069 12.811C234.118 13.033 234.155 13.255 234.18 13.477V13.662C234.18 13.9333 234.192 14.217 234.217 14.513C234.266 14.7843 234.291 15.0557 234.291 15.327C234.291 15.4257 234.291 15.5367 234.291 15.66C234.291 15.7833 234.279 15.9067 234.254 16.03C234.229 16.0793 234.217 16.141 234.217 16.215C234.217 16.511 234.192 16.807 234.143 17.103C234.094 17.3743 234.044 17.6457 233.995 17.917C233.822 18.879 233.563 19.8533 233.218 20.84C233.193 20.9387 233.169 21.0497 233.144 21.173C233.119 21.2717 233.082 21.3827 233.033 21.506L232.478 23.134C232.453 23.2327 232.404 23.3437 232.33 23.467C232.281 23.5657 232.231 23.6767 232.182 23.8L231.516 24.984C231.368 25.2553 231.183 25.5143 230.961 25.761C230.764 25.983 230.517 26.1803 230.221 26.353C229.925 26.5257 229.654 26.76 229.407 27.056C229.234 27.3027 228.963 27.4507 228.593 27.5C228.42 27.5247 228.248 27.537 228.075 27.537C227.927 27.5617 227.779 27.5987 227.631 27.648L227.261 27.759C227.236 27.759 227.212 27.759 227.187 27.759C227.187 27.7837 227.162 27.796 227.113 27.796C226.842 27.8453 226.558 27.907 226.262 27.981C225.991 28.055 225.719 28.1167 225.448 28.166C225.399 28.1907 225.325 28.203 225.226 28.203C225.078 28.203 224.93 28.2153 224.782 28.24C224.634 28.2647 224.486 28.3017 224.338 28.351L223.413 28.573ZM222.414 24.725C222.562 24.7497 222.698 24.7373 222.821 24.688C222.92 24.6387 223.018 24.6263 223.117 24.651H223.413C223.536 24.651 223.647 24.651 223.746 24.651C223.845 24.651 223.943 24.6263 224.042 24.577C224.116 24.5277 224.252 24.4907 224.449 24.466C224.671 24.4167 224.782 24.392 224.782 24.392C224.979 24.3427 225.177 24.2933 225.374 24.244C225.571 24.17 225.769 24.0837 225.966 23.985L227.52 23.319C227.717 23.245 227.902 23.1587 228.075 23.06C228.248 22.9367 228.42 22.8257 228.593 22.727C228.716 22.6037 228.827 22.5173 228.926 22.468C229.074 22.3447 229.185 22.1967 229.259 22.024C229.308 21.9007 229.358 21.7773 229.407 21.654C229.456 21.5307 229.493 21.4073 229.518 21.284C229.617 21.0127 229.703 20.7413 229.777 20.47C229.851 20.174 229.937 19.8903 230.036 19.619C230.159 19.249 230.27 18.8913 230.369 18.546C230.492 18.176 230.591 17.7937 230.665 17.399C230.69 17.2757 230.714 17.14 230.739 16.992C230.764 16.844 230.788 16.696 230.813 16.548C230.838 16.3753 230.85 16.2027 230.85 16.03C230.85 15.8573 230.862 15.6847 230.887 15.512V15.253C230.887 15.0803 230.875 14.9077 230.85 14.735C230.85 14.5623 230.85 14.3897 230.85 14.217C230.825 13.773 230.776 13.329 230.702 12.885C230.628 12.441 230.542 11.997 230.443 11.553C230.394 11.3557 230.344 11.1707 230.295 10.998C230.27 10.8007 230.233 10.6157 230.184 10.443C230.11 10.0977 229.999 9.777 229.851 9.481C229.703 9.16033 229.53 8.852 229.333 8.556C229.308 8.482 229.271 8.445 229.222 8.445C229.049 8.24767 228.864 8.05033 228.667 7.853C228.47 7.65567 228.235 7.50767 227.964 7.409C227.865 7.38433 227.767 7.335 227.668 7.261C227.569 7.21167 227.471 7.16233 227.372 7.113C227.273 7.06367 227.162 7.02667 227.039 7.002C226.62 6.90333 226.163 6.82933 225.67 6.78C225.645 6.75533 225.608 6.75533 225.559 6.78C225.51 6.80467 225.485 6.84167 225.485 6.891C225.485 6.94033 225.473 7.002 225.448 7.076C225.448 7.12533 225.448 7.17467 225.448 7.224C225.423 7.52 225.399 7.82833 225.374 8.149C225.349 8.445 225.349 8.75333 225.374 9.074C225.374 9.19733 225.374 9.333 225.374 9.481C225.374 9.60433 225.362 9.72767 225.337 9.851V10.369C225.312 10.4677 225.3 10.5787 225.3 10.702C225.3 10.8007 225.288 10.8993 225.263 10.998V11.22C225.238 11.3927 225.226 11.5653 225.226 11.738C225.226 11.886 225.201 12.0587 225.152 12.256C225.127 12.3053 225.115 12.3793 225.115 12.478C225.164 12.7247 225.164 12.9837 225.115 13.255V13.921C225.09 14.0937 225.053 14.2787 225.004 14.476C224.955 14.6487 224.831 14.7967 224.634 14.92C224.585 14.9447 224.498 14.9447 224.375 14.92C224.252 14.8953 224.165 14.8707 224.116 14.846C223.943 14.772 223.832 14.6733 223.783 14.55C223.758 14.476 223.721 14.402 223.672 14.328C223.647 14.254 223.635 14.18 223.635 14.106C223.61 13.9087 223.573 13.7113 223.524 13.514C223.499 13.292 223.487 13.07 223.487 12.848C223.487 12.6013 223.487 12.3547 223.487 12.108C223.487 11.8613 223.475 11.6147 223.45 11.368V10.776C223.475 10.6773 223.487 10.5787 223.487 10.48C223.487 10.3567 223.487 10.2457 223.487 10.147C223.487 9.94967 223.475 9.75233 223.45 9.555C223.45 9.35767 223.45 9.16033 223.45 8.963C223.45 8.815 223.438 8.67933 223.413 8.556C223.413 8.408 223.401 8.26 223.376 8.112C223.351 8.01333 223.327 7.927 223.302 7.853C223.277 7.779 223.24 7.705 223.191 7.631C223.117 7.409 222.969 7.23633 222.747 7.113C222.599 6.98967 222.439 6.98967 222.266 7.113C222.167 7.187 222.069 7.261 221.97 7.335C221.896 7.38433 221.81 7.45833 221.711 7.557L221.563 7.705C221.415 7.779 221.279 7.87767 221.156 8.001C221.057 8.09967 220.946 8.21067 220.823 8.334C220.749 8.408 220.675 8.482 220.601 8.556C220.527 8.60533 220.441 8.65467 220.342 8.704C220.194 8.80267 220.095 8.87667 220.046 8.926C219.923 9.02467 219.799 9.12333 219.676 9.222C219.553 9.296 219.429 9.39467 219.306 9.518C219.257 9.56733 219.207 9.60433 219.158 9.629C219.109 9.65367 219.059 9.69067 219.01 9.74C218.961 9.78933 218.911 9.83867 218.862 9.888C218.689 10.0607 218.504 10.2457 218.307 10.443C218.134 10.6403 217.949 10.8253 217.752 10.998C217.629 11.1213 217.505 11.257 217.382 11.405C217.259 11.5283 217.148 11.664 217.049 11.812C217.024 11.886 216.963 11.9723 216.864 12.071L216.605 12.404C216.432 12.6753 216.284 12.959 216.161 13.255C216.038 13.551 215.927 13.8593 215.828 14.18C215.754 14.402 215.717 14.624 215.717 14.846C215.692 15.068 215.68 15.3023 215.68 15.549C215.68 15.771 215.705 16.0053 215.754 16.252C215.754 16.3013 215.754 16.363 215.754 16.437C215.779 16.4863 215.779 16.5357 215.754 16.585C215.754 16.7823 215.766 16.9797 215.791 17.177C215.816 17.3497 215.828 17.5347 215.828 17.732C215.853 17.7813 215.865 17.843 215.865 17.917C215.89 17.9663 215.914 18.0157 215.939 18.065C215.988 18.139 216.038 18.213 216.087 18.287C216.136 18.361 216.161 18.4473 216.161 18.546C216.161 18.5707 216.186 18.6077 216.235 18.657C216.284 18.7557 216.309 18.8297 216.309 18.879C216.408 19.0517 216.469 19.212 216.494 19.36C216.543 19.5327 216.617 19.6683 216.716 19.767L216.901 19.989C216.901 20.063 216.926 20.137 216.975 20.211C217.024 20.2603 217.061 20.3097 217.086 20.359C217.185 20.4577 217.234 20.5563 217.234 20.655C217.283 20.8277 217.357 20.9633 217.456 21.062C217.505 21.1113 217.555 21.1607 217.604 21.21C217.653 21.2593 217.69 21.3087 217.715 21.358C217.838 21.4813 217.9 21.6047 217.9 21.728C217.9 21.802 217.912 21.8513 217.937 21.876C218.011 21.9007 218.06 21.95 218.085 22.024C218.11 22.098 218.134 22.1597 218.159 22.209C218.159 22.2337 218.159 22.246 218.159 22.246C218.184 22.246 218.196 22.2583 218.196 22.283C218.196 22.3323 218.307 22.431 218.529 22.579C218.751 22.727 218.874 22.7887 218.899 22.764L218.973 22.69C218.998 22.69 219.01 22.7023 219.01 22.727H219.047C219.22 22.8503 219.281 22.9983 219.232 23.171C219.183 23.171 219.195 23.208 219.269 23.282L219.38 23.356L219.417 23.393C219.516 23.5163 219.664 23.6397 219.861 23.763C219.91 23.7877 219.972 23.8 220.046 23.8L220.194 23.763C220.416 23.7137 220.589 23.8123 220.712 24.059C220.712 24.1083 220.749 24.17 220.823 24.244C220.996 24.3427 221.168 24.4167 221.341 24.466C221.538 24.5153 221.723 24.5647 221.896 24.614C221.995 24.6387 222.081 24.6633 222.155 24.688C222.229 24.688 222.315 24.7003 222.414 24.725Z" fill="#550312"/>
</svg>
