<svg width="73" height="73" viewBox="0 0 73 73" fill="none" xmlns="http://www.w3.org/2000/svg">
<path d="M27.5749 55.5187L27.6911 56.3418L28.3638 55.8534C30.2681 54.4708 31.5189 52.472 32.4169 50.1917C33.2305 48.1259 33.7661 45.7981 34.2297 43.4357C34.4089 43.5563 34.5842 43.678 34.7584 43.7989C35.9289 44.6114 37.0449 45.3862 38.9251 45.5298C43.3956 45.8765 46.8739 43.635 49.0615 40.2505C51.2404 36.8793 52.158 32.3569 51.5641 28.0246L51.564 28.0241C50.4771 20.1553 42.6547 16.2806 34.5473 17.1818H34.5471C28.0653 17.9042 21.5436 23.1573 21.2741 30.7333C21.1901 32.9958 21.4654 35.0442 22.3508 36.6635C23.2498 38.3075 24.7497 39.4573 26.9905 39.9544L27.3515 40.0345L27.5338 39.7128C28.0187 38.8569 28.2445 38.1286 28.2734 37.4693C28.3027 36.8042 28.1295 36.255 27.8933 35.7673C27.7769 35.5271 27.6439 35.2992 27.5141 35.0836C27.4805 35.0278 27.4474 34.9733 27.4148 34.9195C27.3179 34.7598 27.2247 34.6062 27.1342 34.4454C26.8969 34.0237 26.7056 33.5985 26.625 33.0948L26.6248 33.0939C25.8903 28.5555 28.4999 24.7082 32.1415 22.7864C35.7852 20.8635 40.3379 20.9309 43.449 24.0861C44.4867 25.1382 45.1283 26.7786 45.3659 28.6835C45.6025 30.5806 45.4308 32.6864 44.896 34.6081C44.3598 36.5344 43.4705 38.2349 42.3068 39.3567C41.1576 40.4645 39.748 41.0069 38.0907 40.6748C37.2825 40.512 36.7848 40.2197 36.4771 39.8721C36.17 39.5251 36.0063 39.0712 35.9644 38.4972C35.8778 37.3115 36.3168 35.7853 36.8455 34.1134C36.8903 33.9717 36.9357 33.8291 36.9814 33.6857C37.4571 32.1917 37.958 30.6185 38.0381 29.2688C38.0826 28.519 38.0022 27.7884 37.6825 27.1537C37.3559 26.5053 36.8036 26.0046 35.9981 25.6852L35.9972 25.6849C34.7137 25.1786 33.5411 25.3071 32.5655 25.8801C31.6095 26.4416 30.8848 27.4036 30.4027 28.5013C29.4737 30.6165 29.3602 33.442 30.445 35.4361C30.1353 36.9286 29.7443 38.4044 29.3415 39.9066C29.3192 39.9898 29.2969 40.0731 29.2745 40.1564C28.8777 41.6355 28.4737 43.1416 28.1368 44.6942C27.4237 47.981 27.007 51.4959 27.5749 55.5187ZM1 36.5C1 16.8936 16.8936 1 36.5 1C56.1064 1 72 16.8936 72 36.5C72 56.1064 56.1064 72 36.5 72C16.8936 72 1 56.1064 1 36.5Z" stroke="black"/>
</svg>
