<svg width="71" height="75" viewBox="0 0 71 75" fill="none" xmlns="http://www.w3.org/2000/svg">
<path d="M55.4392 37.2469C63.9014 37.2469 70.7613 33.1062 70.7613 27.9984C70.7613 22.8907 63.9014 18.75 55.4392 18.75C46.9771 18.75 40.1172 22.8907 40.1172 27.9984C40.1172 33.1062 46.9771 37.2469 55.4392 37.2469Z" fill="#FFBE41"/>
<path fill-rule="evenodd" clip-rule="evenodd" d="M55.6697 42.5672C44.7109 42.5672 40.3477 37.6875 40.3477 34.861V46.9688C40.3477 52.0782 47.2079 56.2125 55.6697 56.2125C64.1403 56.2125 71.0006 52.0782 71.0006 46.9688V35.1516C71.0006 37.9828 66.6329 42.5672 55.6697 42.5672Z" fill="#FFBE41"/>
<path fill-rule="evenodd" clip-rule="evenodd" d="M55.6697 61.275C45.8668 61.275 40.3477 56.5828 40.3477 53.7563V65.7516C40.3477 70.861 47.2079 75 55.6697 75C64.1403 75 71.0006 70.861 71.0006 65.7516V53.611C71.0006 56.4375 65.4771 61.275 55.6697 61.275Z" fill="#FFBE41"/>
<path d="M17.7812 18.4969C27.3739 18.4969 35.1503 14.3562 35.1503 9.24844C35.1503 4.14067 27.3739 0 17.7812 0C8.18853 0 0.412109 4.14067 0.412109 9.24844C0.412109 14.3562 8.18853 18.4969 17.7812 18.4969Z" fill="#FFBE41"/>
<path fill-rule="evenodd" clip-rule="evenodd" d="M18.332 23.8172C5.91289 23.8172 0.962891 18.9375 0.962891 16.111V28.2188C0.962891 33.3281 8.74083 37.4625 18.332 37.4625C27.932 37.4625 35.7055 33.3281 35.7055 28.2188V16.4016C35.7055 19.2328 30.7511 23.8172 18.332 23.8172Z" fill="#FFBE41"/>
<path fill-rule="evenodd" clip-rule="evenodd" d="M18.332 42.525C7.21877 42.525 0.962891 37.8328 0.962891 35.0063V47.0016C0.962891 52.111 8.74083 56.25 18.332 56.25C27.932 56.25 35.7055 52.111 35.7055 47.0016V34.861C35.7055 37.6875 29.4408 42.525 18.332 42.525Z" fill="#FFBE41"/>
<path fill-rule="evenodd" clip-rule="evenodd" d="M18.332 61.275C7.21877 61.275 0.962891 56.5828 0.962891 53.7563V65.7516C0.962891 70.861 8.74083 75 18.332 75C27.932 75 35.7055 70.861 35.7055 65.7516V53.611C35.7055 56.4375 29.4408 61.275 18.332 61.275Z" fill="#FFBE41"/>
</svg>
