<svg width="101" height="100" viewBox="0 0 101 100" fill="none" xmlns="http://www.w3.org/2000/svg">
<path d="M97.375 83.3333H3.625C2.77865 83.3333 2.04622 82.921 1.42773 82.0964C0.809245 81.2717 0.5 80.2951 0.5 79.1667C0.5 62.8472 4.29232 48.9366 11.877 37.4349C19.4616 25.9332 29.2109 19.0104 41.125 16.6667C41.9714 16.6667 42.7038 16.2543 43.3223 15.4297C43.9408 14.605 44.25 13.6285 44.25 12.5C44.25 11.3715 43.9408 10.395 43.3223 9.57031C42.7038 8.74566 41.9714 8.33333 41.125 8.33333C40.2786 8.33333 39.5462 7.92101 38.9277 7.09635C38.3092 6.2717 38 5.29514 38 4.16667C38 3.03819 38.3092 2.06163 38.9277 1.23698C39.5462 0.412326 40.2786 0 41.125 0H59.875C60.7214 0 61.4538 0.412326 62.0723 1.23698C62.6908 2.06163 63 3.03819 63 4.16667C63 5.29514 62.6908 6.2717 62.0723 7.09635C61.4538 7.92101 60.7214 8.33333 59.875 8.33333C59.0286 8.33333 58.2962 8.74566 57.6777 9.57031C57.0592 10.395 56.75 11.3715 56.75 12.5C56.75 13.6285 57.0592 14.605 57.6777 15.4297C58.2962 16.2543 59.0286 16.6667 59.875 16.6667C71.7891 19.0104 81.5384 25.9332 89.123 37.4349C96.7077 48.9366 100.5 62.8472 100.5 79.1667C100.5 80.2951 100.191 81.2717 99.5723 82.0964C98.9538 82.921 98.2214 83.3333 97.375 83.3333ZM3.625 91.6667H97.375C98.2214 91.6667 98.9538 92.079 99.5723 92.9036C100.191 93.7283 100.5 94.7049 100.5 95.8333C100.5 96.9618 100.191 97.9384 99.5723 98.763C98.9538 99.5877 98.2214 100 97.375 100H3.625C2.77865 100 2.04622 99.5877 1.42773 98.763C0.809245 97.9384 0.5 96.9618 0.5 95.8333C0.5 94.7049 0.809245 93.7283 1.42773 92.9036C2.04622 92.079 2.77865 91.6667 3.625 91.6667Z" fill="#EFA923"/>
</svg>
